<svg xmlns="http://www.w3.org/2000/svg" xmlns:xlink="http://www.w3.org/1999/xlink" width="500" zoomAndPan="magnify" viewBox="0 0 375 374.999991" height="500" preserveAspectRatio="xMidYMid meet" version="1.0"><defs><g/><clipPath id="84961043be"><path d="M 89.59375 97 L 285 97 L 285 295 L 89.59375 295 Z M 89.59375 97 " clip-rule="nonzero"/></clipPath></defs><g clip-path="url(#84961043be)"><path fill="#000000" d="M 89.796875 201.828125 C 90.316406 186.214844 90.621094 170.550781 97.195312 155.921875 C 102.171875 144.851562 109.3125 135.203125 117.476562 126.367188 C 131.882812 110.769531 150.484375 103.164062 170.921875 99.503906 C 194.238281 95.332031 216.199219 99.703125 236.664062 111.242188 C 251.394531 119.550781 262.804688 131.417969 271.117188 146.1875 C 276.546875 155.832031 281.335938 165.734375 283.105469 176.824219 C 284.792969 187.398438 285.28125 197.929688 283.839844 208.636719 C 282.421875 219.179688 279.953125 229.332031 274.824219 238.632812 C 267.972656 251.058594 260.777344 263.183594 249.226562 272.191406 C 234.660156 283.550781 218.308594 290.003906 200.152344 292.847656 C 168.648438 297.777344 142.140625 286.9375 118.058594 267.855469 C 113.171875 263.980469 108.46875 259.871094 105.195312 254.464844 C 96.941406 240.824219 90.488281 226.566406 90.238281 210.207031 C 90.214844 208.761719 89.894531 207.324219 89.8125 205.878906 C 89.738281 204.53125 89.796875 203.179688 89.796875 201.828125 Z M 139.183594 236.214844 C 146.199219 239.777344 152.222656 244.503906 157.710938 250.042969 C 163.1875 255.570312 168.859375 260.914062 174.59375 266.175781 C 179.179688 270.382812 184.203125 274.046875 189.972656 276.519531 C 199.988281 280.8125 210.625 282.015625 221.355469 282.816406 C 225.039062 283.089844 228.140625 281.960938 231.300781 280.222656 C 236.757812 277.21875 241.996094 273.914062 246.871094 270.0625 C 251.679688 266.257812 256.160156 262.085938 259.902344 257.199219 C 261.882812 254.621094 261.757812 254.261719 258.703125 253.484375 C 252.214844 251.828125 245.738281 250.105469 239.199219 248.667969 C 235.167969 247.78125 231.050781 247.296875 226.878906 247.382812 C 211.015625 247.707031 195.5 246.117188 180.84375 239.332031 C 177.699219 237.878906 174.242188 237.046875 170.71875 236.640625 C 160.257812 235.429688 149.769531 236.160156 139.183594 236.214844 Z M 94.769531 224.675781 C 100.679688 241.148438 107.257812 256.003906 121.128906 266.597656 C 144.765625 284.644531 170.511719 294.875 200.792969 289.613281 C 206.058594 288.695312 211.371094 287.871094 216.410156 285.820312 C 214.179688 285.261719 211.976562 284.925781 209.765625 284.667969 C 196.773438 283.144531 184.742188 279.238281 174.820312 270.324219 C 168.878906 264.980469 162.691406 259.824219 157.34375 253.925781 C 144.496094 239.761719 128.167969 233.886719 109.6875 232.496094 C 106.007812 232.21875 102.527344 231.003906 99.96875 228.308594 C 98.640625 226.90625 97.253906 225.84375 94.769531 224.675781 Z M 208.90625 220.503906 C 209.632812 220.503906 210.402344 220.347656 211.078125 220.53125 C 214.371094 221.433594 215.265625 219.515625 215.484375 216.847656 C 215.804688 212.9375 216.253906 209.078125 215.671875 205.09375 C 214.34375 196.023438 203.785156 183.574219 194.25 182.054688 C 190.691406 181.488281 187.117188 181.496094 183.46875 181.605469 C 169.65625 182.03125 159.664062 192.132812 157.3125 204.367188 C 155.550781 213.558594 156.957031 222.042969 163.4375 229.25 C 164.816406 230.78125 166.074219 231.167969 168.226562 230.246094 C 181.210938 224.679688 194.703125 221.050781 208.90625 220.503906 Z M 168.722656 233.332031 C 172.414062 233.722656 175.414062 234.332031 178.320312 235.359375 C 184.230469 237.453125 190.089844 239.726562 196.078125 241.574219 C 205.503906 244.480469 215.363281 244.464844 225.039062 244.40625 C 237.804688 244.324219 249.585938 248.492188 261.695312 251.316406 C 263.242188 251.679688 263.832031 251.542969 264.566406 250.269531 C 267.035156 245.964844 269.679688 241.765625 272.097656 237.433594 C 273.515625 234.894531 274.910156 232.289062 275.503906 229.1875 C 272.570312 229.347656 269.882812 229.597656 267.195312 229.628906 C 255.332031 229.765625 243.703125 227.488281 232.046875 225.796875 C 217.191406 223.640625 202.46875 222.195312 187.757812 226.667969 C 181.496094 228.570312 175.199219 230.292969 168.722656 233.332031 Z M 207.949219 186.246094 C 214.242188 178.609375 220.285156 171.105469 226.511719 163.761719 C 235.558594 153.089844 244.746094 142.535156 253.847656 131.914062 C 254.609375 131.019531 256.191406 130.257812 254.375 128.742188 C 250.398438 125.425781 246.484375 122.027344 242.621094 118.578125 C 241.058594 117.179688 240.054688 116.832031 239.175781 119.222656 C 238.648438 120.648438 237.644531 121.902344 236.828125 123.21875 C 225.8125 141.035156 214.914062 158.917969 206.175781 178.011719 C 204.742188 181.140625 205.332031 183.886719 207.949219 186.246094 Z M 175.164062 179.632812 C 174.683594 178.515625 174.382812 177.863281 174.117188 177.195312 C 168.699219 163.527344 163.214844 149.886719 157.894531 136.183594 C 154.695312 127.953125 151.832031 119.59375 148.257812 111.511719 C 147.960938 110.839844 148.1875 109.207031 146.398438 110.007812 C 141.410156 112.246094 136.40625 114.410156 132.0625 117.839844 C 131.089844 118.609375 131.179688 119.160156 131.726562 120.128906 C 134.253906 124.621094 136.605469 129.214844 139.179688 133.679688 C 148.109375 149.164062 158.515625 163.71875 167.9375 178.890625 C 169.621094 181.601562 171.957031 182.027344 174.484375 180.085938 C 174.828125 179.824219 175.175781 179.667969 175.164062 179.632812 Z M 182.117188 178.011719 C 181.046875 171.460938 180.1875 165.429688 179.0625 159.449219 C 176.675781 146.765625 174.265625 134.097656 173.109375 121.222656 C 172.636719 115.980469 171.980469 110.75 171.242188 105.539062 C 171.066406 104.285156 171.441406 102.0625 168.8125 102.707031 C 163.113281 104.105469 157.425781 105.511719 151.921875 107.597656 C 150.65625 108.078125 150.1875 108.480469 150.8125 109.9375 C 157.167969 124.683594 162.304688 139.90625 168.320312 154.785156 C 171.40625 162.417969 174.558594 170.023438 177.523438 177.703125 C 178.082031 179.148438 178.761719 179.558594 180 179.058594 C 180.765625 178.746094 182.363281 179.273438 182.117188 178.011719 Z M 191.328125 171.097656 C 191.328125 173.4375 191.546875 174.929688 191.28125 176.332031 C 190.785156 178.941406 192.765625 178.746094 194.191406 179.136719 C 196.367188 179.730469 195.898438 177.667969 196.121094 176.800781 C 197.664062 170.828125 198.890625 164.773438 200.457031 158.808594 C 204.953125 141.699219 210.621094 124.949219 216.042969 108.121094 C 216.578125 106.460938 216.707031 105.546875 214.472656 104.964844 C 209.28125 103.613281 204.101562 102.332031 198.789062 101.558594 C 196.765625 101.261719 196.234375 101.769531 196.121094 103.835938 C 195.636719 112.511719 195.078125 121.1875 194.277344 129.839844 C 192.976562 143.867188 192.191406 157.929688 191.328125 171.101562 Z M 128.332031 119.867188 C 123.621094 124.742188 118.929688 128.832031 115.019531 133.71875 C 113.847656 135.183594 114.207031 135.953125 115.273438 137.023438 C 117.609375 139.378906 119.949219 141.734375 122.199219 144.171875 C 135.621094 158.710938 148.722656 173.558594 163.605469 186.699219 C 164.140625 186.222656 164.550781 185.71875 165.082031 185.414062 C 167.210938 184.195312 167.078125 183.035156 165.800781 180.953125 C 159.746094 171.070312 152.859375 161.742188 146.792969 151.875 C 140.429688 141.523438 133.839844 131.296875 128.332031 119.867188 Z M 182.480469 101.308594 C 181.355469 101.308594 180.730469 101.277344 180.113281 101.3125 C 174.050781 101.648438 173.9375 101.660156 174.539062 107.4375 C 175.40625 115.761719 176.246094 124.101562 177.476562 132.378906 C 178.980469 142.480469 180.878906 152.519531 182.609375 162.585938 C 183.414062 167.273438 184.285156 171.949219 185 176.644531 C 185.199219 177.9375 185.621094 178.390625 186.945312 178.386719 C 188.484375 178.378906 188.1875 177.410156 188.226562 176.515625 C 188.386719 172.890625 188.511719 169.265625 188.738281 165.644531 C 189.414062 154.984375 190.007812 144.316406 190.871094 133.671875 C 191.6875 123.554688 192.730469 113.457031 193.191406 103.308594 C 193.273438 101.578125 192.789062 100.953125 190.988281 100.929688 C 187.972656 100.886719 184.996094 101.6875 182.480469 101.308594 Z M 198.695312 178.890625 C 198.367188 179.886719 199.226562 180.425781 200.421875 180.882812 C 202.238281 181.578125 201.992188 179.855469 202.292969 179.175781 C 207.511719 167.355469 213.730469 156.046875 220.195312 144.886719 C 225.582031 135.59375 231.265625 126.472656 236.878906 117.3125 C 237.816406 115.78125 237.84375 114.972656 236.03125 114.109375 C 231.386719 111.894531 226.832031 109.519531 222.027344 107.632812 C 219.863281 106.78125 219.320312 107.359375 218.710938 109.332031 C 214.4375 123.1875 210.007812 136.996094 205.71875 150.851562 C 202.910156 159.910156 201.054688 169.214844 198.695312 178.890625 Z M 216.710938 197.09375 C 217.292969 196.78125 217.828125 196.464844 218.382812 196.199219 C 228.78125 191.199219 239.167969 186.179688 249.585938 181.222656 C 258.238281 177.101562 267.175781 173.570312 275.402344 168.5625 C 276.949219 167.621094 277.53125 166.894531 276.761719 164.988281 C 274.949219 160.488281 272.878906 156.128906 270.78125 151.765625 C 269.957031 150.046875 269.382812 150.097656 267.949219 151.125 C 254.070312 161.074219 240.179688 170.996094 227.410156 182.390625 C 223.546875 185.839844 219.5625 189.152344 215.660156 192.554688 C 215.015625 193.121094 214.035156 193.660156 214.921875 194.804688 C 215.515625 195.570312 215.574219 196.757812 216.710938 197.09375 Z M 158.753906 191.921875 C 159.859375 191.414062 160.226562 190.246094 160.964844 189.445312 C 162.027344 188.296875 160.617188 188.082031 160.136719 187.664062 C 154.625 182.921875 149.519531 177.746094 144.507812 172.5 C 134.125 161.632812 123.890625 150.617188 113.710938 139.558594 C 112.183594 137.898438 111.628906 138.164062 110.410156 139.761719 C 107.644531 143.390625 105.347656 147.304688 102.921875 151.144531 C 102.003906 152.601562 102.074219 153.398438 103.585938 154.351562 C 105.847656 155.78125 107.988281 157.414062 110.117188 159.046875 C 125.324219 170.6875 141.972656 180.207031 157.597656 191.230469 C 157.929688 191.464844 158.296875 191.652344 158.753906 191.921875 Z M 212.789062 191.035156 C 213.308594 190.550781 213.8125 190.03125 214.367188 189.566406 C 224.222656 181.320312 233.929688 172.894531 243.988281 164.910156 C 251.101562 159.261719 258.6875 154.207031 266.074219 148.902344 C 267.363281 147.976562 268.578125 147.277344 267.203125 145.316406 C 264.539062 141.507812 262.171875 137.5 259.164062 133.917969 C 257.933594 132.449219 257.324219 132.320312 256.003906 133.886719 C 245.644531 146.152344 235.152344 158.308594 224.78125 170.566406 C 220.167969 176.019531 215.746094 181.632812 211.242188 187.175781 C 210.753906 187.773438 209.867188 188.324219 210.777344 189.1875 C 211.421875 189.800781 211.65625 190.867188 212.789062 191.035156 Z M 100.578125 155.46875 C 98.257812 161.304688 96.460938 166.632812 95.175781 172.164062 C 94.765625 173.910156 95.433594 174.320312 96.628906 174.816406 C 100.148438 176.265625 103.667969 177.707031 107.179688 179.175781 C 122.640625 185.644531 138.035156 192.292969 154.203125 196.890625 C 155.414062 197.234375 156.214844 197.671875 156.914062 196.199219 C 157.617188 194.714844 156.714844 194.265625 155.71875 193.578125 C 137.460938 180.910156 118.152344 169.78125 100.578125 155.46875 Z M 281.066406 184.621094 C 281.183594 179.996094 279.691406 176.070312 279.089844 171.996094 C 278.855469 170.402344 277.980469 170.359375 276.738281 171.179688 C 275.277344 172.148438 273.785156 173.09375 272.207031 173.851562 C 259.667969 179.859375 247.097656 185.8125 234.546875 191.796875 C 229.347656 194.277344 224.136719 196.738281 218.980469 199.304688 C 215.996094 200.792969 218.542969 202.847656 218.738281 204.558594 C 218.957031 206.503906 220.308594 205.054688 221.046875 204.839844 C 231.035156 201.96875 241.027344 199.125 250.964844 196.09375 C 259.808594 193.390625 268.945312 191.820312 277.757812 188.980469 C 280.324219 188.152344 282.089844 187.257812 281.066406 184.621094 Z M 217.78125 220.863281 C 225.347656 221.898438 232.917969 222.921875 240.484375 223.96875 C 250.417969 225.34375 260.324219 227.011719 270.421875 226.625 C 277.054688 226.371094 277.054688 226.449219 278.6875 220.09375 C 278.941406 219.097656 279.238281 218.109375 279.484375 217.109375 C 280.285156 213.847656 279.011719 212.296875 275.667969 212.460938 C 258.703125 213.339844 241.683594 212.664062 224.757812 214.746094 C 218.953125 215.460938 218.890625 214.960938 217.78125 220.863281 Z M 281.59375 190.945312 C 278.410156 191.878906 275.402344 192.90625 272.320312 193.644531 C 255.089844 197.769531 238.1875 203.039062 221.179688 207.953125 C 219.3125 208.492188 218.597656 209.4375 218.886719 211.203125 C 219.234375 213.351562 220.902344 212.175781 221.859375 212.101562 C 227.53125 211.664062 233.183594 211.011719 238.851562 210.492188 C 252.195312 209.277344 265.605469 210.304688 278.964844 209.460938 C 280.464844 209.363281 280.871094 209.082031 281.03125 207.65625 C 281.628906 202.289062 281.929688 196.921875 281.59375 190.941406 Z M 92.898438 196.464844 C 92.898438 200.386719 92.785156 203.910156 92.925781 207.421875 C 93.160156 213.367188 93.226562 213.363281 99.179688 212.972656 C 99.488281 212.949219 99.800781 212.976562 100.113281 212.964844 C 113.257812 212.53125 126.410156 212.140625 139.554688 211.625 C 143.785156 211.460938 148 210.9375 152.226562 210.628906 C 154.519531 210.464844 153.476562 208.664062 153.761719 207.5625 C 154.140625 206.105469 152.992188 206.21875 152.054688 206.144531 C 142.578125 205.375 133.269531 203.441406 123.902344 201.949219 C 113.625 200.316406 103.402344 198.339844 92.898438 196.464844 Z M 94.269531 177.171875 C 93.980469 180.636719 93.675781 183.714844 93.480469 186.796875 C 93.34375 188.9375 92.535156 191.636719 93.511719 193.085938 C 94.542969 194.613281 97.515625 193.980469 99.609375 194.414062 C 117.171875 198.070312 134.855469 200.957031 152.648438 203.234375 C 154.316406 203.449219 154.5 202.847656 154.910156 201.722656 C 155.5 200.117188 154.433594 200.097656 153.371094 199.8125 C 145.117188 197.597656 137.140625 194.566406 129.222656 191.398438 C 117.695312 186.78125 106.214844 182.042969 94.269531 177.171875 Z M 112.390625 229.703125 C 114.199219 230.015625 115.832031 229.589844 117.523438 228.96875 C 121.082031 227.664062 124.699219 226.507812 128.324219 225.410156 C 136.191406 223.035156 144.183594 221.109375 152.046875 218.695312 C 154.738281 217.867188 153.992188 216.328125 153.878906 214.773438 C 153.71875 212.523438 151.933594 213.707031 151.019531 213.777344 C 144.617188 214.273438 138.21875 214.679688 131.796875 214.871094 C 119.785156 215.234375 107.777344 215.765625 95.761719 216.164062 C 94.386719 216.210938 93.988281 216.671875 94.0625 217.996094 C 94.175781 219.964844 94.105469 221.738281 96.742188 222.367188 C 98.371094 222.753906 100.210938 223.726562 101.199219 225.011719 C 104.121094 228.816406 108.121094 229.472656 112.390625 229.703125 Z M 122.113281 230.867188 C 127.976562 233.023438 133.773438 232.121094 139.371094 232.847656 C 139.972656 232.925781 140.683594 232.363281 141.308594 232.027344 C 145.824219 229.613281 150.28125 227.066406 154.878906 224.816406 C 156.433594 224.058594 155.976562 223.226562 155.679688 222.210938 C 155.308594 220.933594 154.496094 220.828125 153.328125 221.265625 C 143.25 225.066406 132.480469 226.617188 122.113281 230.867188 Z M 162.121094 232.582031 C 160.613281 230.660156 159.390625 229.160156 158.234375 227.613281 C 157.671875 226.859375 157.078125 226.960938 156.398438 227.328125 C 153.28125 229.015625 150.167969 230.710938 147.050781 232.398438 C 152.027344 232.792969 156.886719 233.152344 162.121094 232.582031 Z M 162.121094 232.582031 " fill-opacity="1" fill-rule="nonzero"/></g><g fill="#231f20" fill-opacity="1"><g transform="translate(124.312001, 100.600076)"><g><path d="M 0.46875 -0.25 L -0.609375 -2.265625 L 2.828125 -4.09375 L -6.34375 -21.3125 L -9.78125 -19.484375 L -10.84375 -21.5 L -0.84375 -26.828125 L 0.21875 -24.8125 L -3.03125 -23.078125 L 6.140625 -5.859375 L 14.140625 -10.125 L 10.515625 -16.9375 L 13.140625 -18.328125 L 17.84375 -9.5 Z M 0.46875 -0.25 "/></g></g></g><g fill="#231f20" fill-opacity="1"><g transform="translate(140.89817, 91.605017)"><g><path d="M 12.359375 -7.484375 C 11.847656 -4.785156 10.398438 -3.035156 8.015625 -2.234375 C 7.660156 -2.109375 7.304688 -2.019531 6.953125 -1.96875 C 6.609375 -1.914062 6.21875 -1.882812 5.78125 -1.875 C 4.957031 -1.851562 4.085938 -2.179688 3.171875 -2.859375 C 2.734375 -3.179688 2.320312 -3.644531 1.9375 -4.25 C 1.550781 -4.851562 1.21875 -5.570312 0.9375 -6.40625 L -2.125 -15.5 L -4.96875 -14.546875 L -5.546875 -16.25 L 0.578125 -18.3125 L 4.21875 -7.546875 C 4.664062 -6.210938 5.195312 -5.316406 5.8125 -4.859375 C 6.4375 -4.398438 7.203125 -4.320312 8.109375 -4.625 C 8.753906 -4.84375 9.367188 -5.257812 9.953125 -5.875 C 10.546875 -6.5 10.976562 -7.210938 11.25 -8.015625 C 11.519531 -8.796875 11.546875 -9.507812 11.328125 -10.15625 L 8.34375 -19.03125 L 5.59375 -18.09375 L 5.015625 -19.796875 L 11.046875 -21.828125 L 15.953125 -7.28125 L 19 -7.953125 L 19.46875 -6.5625 L 13.515625 -4.0625 Z M 12.359375 -7.484375 "/></g></g></g><g fill="#231f20" fill-opacity="1"><g transform="translate(158.678911, 85.46453)"><g><path d="M 0.4375 -0.0625 L 0.15625 -1.84375 L 2.625 -2.25 L 6.875 -9.65625 L 0.1875 -15.609375 L -2.40625 -15.1875 L -2.6875 -16.96875 L 6.265625 -18.421875 L 6.546875 -16.640625 L 4.1875 -16.25 L 8.515625 -12.0625 L 11.328125 -17.421875 L 8.796875 -17 L 8.515625 -18.78125 L 16.46875 -20.078125 L 16.75 -18.296875 L 14.15625 -17.875 L 10.171875 -10.921875 L 17.25 -4.640625 L 19.875 -5.0625 L 20.15625 -3.28125 L 10.765625 -1.75 L 10.484375 -3.53125 L 13.3125 -3.984375 L 8.703125 -8.546875 L 5.4375 -2.71875 L 8.296875 -3.171875 L 8.578125 -1.390625 Z M 0.4375 -0.0625 "/></g></g></g><g fill="#231f20" fill-opacity="1"><g transform="translate(177.041232, 82.227728)"><g><path d="M 0.53125 0 L 0.5625 -2.28125 L 4.453125 -2.234375 L 4.640625 -21.75 L 0.75 -21.796875 L 0.78125 -24.078125 L 22.234375 -23.84375 L 22.140625 -15.0625 L 19.234375 -15.09375 L 19.296875 -21.59375 L 8.40625 -21.71875 L 8.328125 -13.421875 L 14.09375 -13.359375 L 14.125 -16.734375 L 16.328125 -16.703125 L 16.234375 -7.359375 L 14.03125 -7.390625 L 14.078125 -11.453125 L 8.3125 -11.515625 L 8.21875 -2.203125 L 12.375 -2.15625 L 12.34375 0.125 Z M 0.53125 0 "/></g></g></g><g fill="#231f20" fill-opacity="1"><g transform="translate(198.111392, 82.744188)"><g><path d="M 8.1875 -19.21875 C 7.769531 -19.28125 7.394531 -19.441406 7.0625 -19.703125 C 6.738281 -19.960938 6.492188 -20.289062 6.328125 -20.6875 C 6.171875 -21.082031 6.117188 -21.484375 6.171875 -21.890625 C 6.234375 -22.328125 6.394531 -22.707031 6.65625 -23.03125 C 6.925781 -23.363281 7.253906 -23.609375 7.640625 -23.765625 C 8.035156 -23.929688 8.441406 -23.984375 8.859375 -23.921875 C 9.273438 -23.859375 9.648438 -23.691406 9.984375 -23.421875 C 10.316406 -23.148438 10.566406 -22.816406 10.734375 -22.421875 C 10.898438 -22.035156 10.953125 -21.628906 10.890625 -21.203125 C 10.835938 -20.796875 10.675781 -20.425781 10.40625 -20.09375 C 10.132812 -19.757812 9.800781 -19.515625 9.40625 -19.359375 C 9.007812 -19.203125 8.601562 -19.15625 8.1875 -19.21875 Z M 0.859375 0.125 L 1.109375 -1.65625 L 4.171875 -1.21875 L 6.109375 -14.65625 L 3.015625 -15.09375 L 3.265625 -16.875 L 9.765625 -15.953125 L 7.578125 -0.734375 L 10.6875 -0.28125 L 10.4375 1.5 Z M 0.859375 0.125 "/></g></g></g><g fill="#231f20" fill-opacity="1"><g transform="translate(207.337785, 83.61661)"><g><path d="M 1.234375 -1.53125 L 4.25 -0.6875 L 7.890625 -13.765625 L 4.875 -14.609375 L 5.359375 -16.34375 L 11.28125 -14.953125 L 10.734375 -11.484375 C 11.265625 -12.140625 11.894531 -12.65625 12.625 -13.03125 C 13.351562 -13.40625 14.113281 -13.628906 14.90625 -13.703125 C 15.707031 -13.773438 16.472656 -13.710938 17.203125 -13.515625 C 17.546875 -13.410156 17.847656 -13.304688 18.109375 -13.203125 C 18.367188 -13.097656 18.65625 -12.945312 18.96875 -12.75 C 19.3125 -12.539062 19.597656 -12.304688 19.828125 -12.046875 C 20.054688 -11.796875 20.28125 -11.476562 20.5 -11.09375 C 20.71875 -10.675781 20.867188 -10.238281 20.953125 -9.78125 C 21.035156 -9.332031 21.0625 -8.785156 21.03125 -8.140625 C 20.976562 -7.515625 20.847656 -6.828125 20.640625 -6.078125 L 18.0625 3.171875 L 21.21875 4.046875 L 20.734375 5.78125 L 11.453125 3.1875 L 11.9375 1.453125 L 14.75 2.25 L 17.328125 -6.96875 C 17.679688 -8.269531 17.691406 -9.320312 17.359375 -10.125 C 17.035156 -10.925781 16.40625 -11.457031 15.46875 -11.71875 C 14.882812 -11.875 14.320312 -11.910156 13.78125 -11.828125 C 13.238281 -11.742188 12.75 -11.5625 12.3125 -11.28125 C 11.882812 -11 11.488281 -10.632812 11.125 -10.1875 C 10.769531 -9.75 10.46875 -9.265625 10.21875 -8.734375 C 9.976562 -8.242188 9.769531 -7.6875 9.59375 -7.0625 L 7.5625 0.234375 L 10.359375 1.015625 L 9.875 2.75 L 0.75 0.203125 Z M 1.234375 -1.53125 "/></g></g></g><g fill="#231f20" fill-opacity="1"><g transform="translate(226.593023, 88.954183)"><g><path d="M 8.484375 4.421875 C 6.972656 3.710938 5.804688 2.738281 4.984375 1.5 C 4.160156 0.269531 3.722656 -1.101562 3.671875 -2.625 C 3.617188 -4.15625 3.960938 -5.710938 4.703125 -7.296875 C 5.421875 -8.859375 6.363281 -10.113281 7.53125 -11.0625 C 8.695312 -12.019531 10.023438 -12.59375 11.515625 -12.78125 C 13.003906 -12.957031 14.519531 -12.6875 16.0625 -11.96875 C 17.207031 -11.4375 18.164062 -10.738281 18.9375 -9.875 C 19.707031 -9.007812 20.242188 -8.0625 20.546875 -7.03125 C 20.835938 -6 20.921875 -4.90625 20.796875 -3.75 C 20.679688 -2.59375 20.359375 -1.4375 19.828125 -0.28125 C 19.097656 1.28125 18.148438 2.535156 16.984375 3.484375 C 15.828125 4.441406 14.515625 5.015625 13.046875 5.203125 C 11.554688 5.398438 10.035156 5.140625 8.484375 4.421875 Z M 9.34375 2.578125 C 10.195312 2.972656 11.054688 3.0625 11.921875 2.84375 C 12.796875 2.632812 13.617188 2.144531 14.390625 1.375 C 15.160156 0.601562 15.832031 -0.398438 16.40625 -1.640625 C 17.03125 -2.984375 17.421875 -4.203125 17.578125 -5.296875 C 17.734375 -6.390625 17.625 -7.375 17.25 -8.25 C 16.894531 -9.132812 16.234375 -9.800781 15.265625 -10.25 C 14.328125 -10.6875 13.394531 -10.765625 12.46875 -10.484375 C 11.539062 -10.210938 10.695312 -9.640625 9.9375 -8.765625 C 9.195312 -7.929688 8.523438 -6.863281 7.921875 -5.5625 C 7.347656 -4.320312 7.015625 -3.160156 6.921875 -2.078125 C 6.835938 -0.992188 7.003906 -0.0507812 7.421875 0.75 C 7.835938 1.5625 8.476562 2.171875 9.34375 2.578125 Z M 9.34375 2.578125 "/></g></g></g><g fill="#231f20" fill-opacity="1"><g transform="translate(242.671969, 96.681649)"><g/></g></g><g fill="#000000" fill-opacity="1"><g transform="translate(86.623867, 268.449878)"><g><path d="M 13.109375 -3.375 C 14.296875 -1.925781 14.816406 -0.492188 14.671875 0.921875 C 14.535156 2.347656 13.738281 3.660156 12.28125 4.859375 C 11.269531 5.679688 10.238281 6.210938 9.1875 6.453125 C 8.132812 6.691406 7.125 6.628906 6.15625 6.265625 C 5.1875 5.910156 4.320312 5.273438 3.5625 4.359375 L 1.0625 1.296875 C 0.8125 0.992188 0.804688 0.742188 1.046875 0.546875 L 1.390625 0.265625 C 1.640625 0.0664062 1.890625 0.117188 2.140625 0.421875 L 2.421875 0.765625 L 9.765625 -5.265625 L 9.484375 -5.609375 C 9.234375 -5.910156 9.234375 -6.160156 9.484375 -6.359375 L 9.828125 -6.640625 C 10.066406 -6.835938 10.3125 -6.785156 10.5625 -6.484375 Z M 4.546875 3.359375 C 5.453125 4.460938 6.476562 5.03125 7.625 5.0625 C 8.78125 5.101562 9.976562 4.617188 11.21875 3.609375 C 12.394531 2.640625 13.039062 1.644531 13.15625 0.625 C 13.28125 -0.382812 12.878906 -1.457031 11.953125 -2.59375 L 10.765625 -4.046875 L 3.421875 1.984375 Z M 4.546875 3.359375 "/></g></g></g><g fill="#000000" fill-opacity="1"><g transform="translate(97.417571, 281.022884)"><g><path d="M 1.1875 1.171875 C 0.914062 0.898438 0.890625 0.65625 1.109375 0.4375 L 1.421875 0.125 C 1.648438 -0.101562 1.898438 -0.0820312 2.171875 0.1875 L 2.5 0.515625 L 9.171875 -6.25 L 8.84375 -6.578125 C 8.570312 -6.847656 8.550781 -7.097656 8.78125 -7.328125 L 9.078125 -7.640625 C 9.304688 -7.859375 9.554688 -7.832031 9.828125 -7.5625 L 11.59375 -5.8125 C 11.863281 -5.539062 11.882812 -5.296875 11.65625 -5.078125 L 11.359375 -4.765625 C 11.128906 -4.535156 10.878906 -4.554688 10.609375 -4.828125 L 10.296875 -5.140625 L 3.625 1.625 L 3.9375 1.9375 C 4.207031 2.207031 4.226562 2.457031 4 2.6875 L 3.6875 3 C 3.46875 3.21875 3.222656 3.191406 2.953125 2.921875 Z M 1.1875 1.171875 "/></g></g></g><g fill="#000000" fill-opacity="1"><g transform="translate(104.317382, 287.754263)"><g><path d="M 8.890625 -1.71875 C 9.453125 -0.851562 9.84375 -0.117188 10.0625 0.484375 C 10.28125 1.085938 10.347656 1.628906 10.265625 2.109375 C 10.179688 2.597656 9.941406 3.085938 9.546875 3.578125 C 9.140625 4.078125 8.628906 4.410156 8.015625 4.578125 C 7.410156 4.753906 6.769531 4.757812 6.09375 4.59375 C 5.414062 4.4375 4.765625 4.101562 4.140625 3.59375 C 3.472656 3.050781 2.957031 2.472656 2.59375 1.859375 C 2.238281 1.242188 2.070312 0.644531 2.09375 0.0625 C 2.113281 -0.507812 2.3125 -1.03125 2.6875 -1.5 C 2.925781 -1.789062 3.1875 -1.960938 3.46875 -2.015625 C 3.757812 -2.066406 4.039062 -1.984375 4.3125 -1.765625 C 4.539062 -1.578125 4.671875 -1.347656 4.703125 -1.078125 C 4.734375 -0.816406 4.660156 -0.578125 4.484375 -0.359375 C 4.242188 -0.0664062 3.945312 0.0664062 3.59375 0.046875 C 3.5625 0.421875 3.664062 0.820312 3.90625 1.25 C 4.144531 1.6875 4.503906 2.101562 4.984375 2.5 C 5.597656 2.988281 6.203125 3.242188 6.796875 3.265625 C 7.390625 3.296875 7.867188 3.082031 8.234375 2.625 C 8.492188 2.3125 8.644531 2.015625 8.6875 1.734375 C 8.726562 1.460938 8.664062 1.132812 8.5 0.75 C 8.34375 0.363281 8.03125 -0.179688 7.5625 -0.890625 C 7.007812 -1.753906 6.617188 -2.492188 6.390625 -3.109375 C 6.160156 -3.722656 6.082031 -4.269531 6.15625 -4.75 C 6.238281 -5.238281 6.476562 -5.726562 6.875 -6.21875 C 7.269531 -6.707031 7.765625 -7.035156 8.359375 -7.203125 C 8.953125 -7.367188 9.585938 -7.351562 10.265625 -7.15625 C 10.953125 -6.957031 11.617188 -6.59375 12.265625 -6.0625 C 13.160156 -5.34375 13.707031 -4.578125 13.90625 -3.765625 C 14.101562 -2.960938 13.929688 -2.226562 13.390625 -1.5625 C 13.148438 -1.269531 12.882812 -1.097656 12.59375 -1.046875 C 12.300781 -0.992188 12.023438 -1.070312 11.765625 -1.28125 C 11.535156 -1.46875 11.398438 -1.691406 11.359375 -1.953125 C 11.328125 -2.210938 11.398438 -2.453125 11.578125 -2.671875 C 11.785156 -2.921875 12.046875 -3.054688 12.359375 -3.078125 C 12.515625 -3.710938 12.15625 -4.382812 11.28125 -5.09375 C 10.6875 -5.582031 10.097656 -5.84375 9.515625 -5.875 C 8.941406 -5.90625 8.476562 -5.707031 8.125 -5.28125 C 7.882812 -4.976562 7.742188 -4.679688 7.703125 -4.390625 C 7.671875 -4.109375 7.742188 -3.757812 7.921875 -3.34375 C 8.109375 -2.9375 8.429688 -2.394531 8.890625 -1.71875 Z M 8.890625 -1.71875 "/></g></g></g><g fill="#000000" fill-opacity="1"><g transform="translate(115.911503, 296.910586)"><g><path d="M 10.296875 2.453125 C 10.460938 2.554688 10.570312 2.695312 10.625 2.875 C 10.6875 3.0625 10.671875 3.226562 10.578125 3.375 C 10.453125 3.582031 10.242188 3.753906 9.953125 3.890625 C 9.191406 4.265625 8.429688 4.425781 7.671875 4.375 C 6.910156 4.320312 6.140625 4.050781 5.359375 3.5625 C 4.453125 2.988281 3.804688 2.273438 3.421875 1.421875 C 3.035156 0.578125 2.921875 -0.351562 3.078125 -1.375 C 3.242188 -2.40625 3.664062 -3.46875 4.34375 -4.5625 C 5.394531 -6.238281 6.601562 -7.300781 7.96875 -7.75 C 9.332031 -8.195312 10.710938 -7.984375 12.109375 -7.109375 C 12.765625 -6.691406 13.289062 -6.191406 13.6875 -5.609375 C 14.09375 -5.023438 14.332031 -4.425781 14.40625 -3.8125 C 14.488281 -3.207031 14.375 -2.664062 14.0625 -2.1875 C 13.875 -1.875 13.632812 -1.675781 13.34375 -1.59375 C 13.0625 -1.507812 12.78125 -1.554688 12.5 -1.734375 C 12.257812 -1.890625 12.101562 -2.097656 12.03125 -2.359375 C 11.96875 -2.617188 12.007812 -2.867188 12.15625 -3.109375 C 12.332031 -3.390625 12.582031 -3.550781 12.90625 -3.59375 C 12.925781 -4.019531 12.796875 -4.441406 12.515625 -4.859375 C 12.234375 -5.285156 11.859375 -5.644531 11.390625 -5.9375 C 9.328125 -7.226562 7.425781 -6.488281 5.6875 -3.71875 C 4.84375 -2.375 4.453125 -1.171875 4.515625 -0.109375 C 4.578125 0.941406 5.117188 1.789062 6.140625 2.4375 C 6.691406 2.78125 7.238281 2.960938 7.78125 2.984375 C 8.332031 3.003906 8.890625 2.863281 9.453125 2.5625 C 9.660156 2.4375 9.820312 2.367188 9.9375 2.359375 C 10.050781 2.347656 10.171875 2.378906 10.296875 2.453125 Z M 10.296875 2.453125 "/></g></g></g><g fill="#000000" fill-opacity="1"><g transform="translate(129.473756, 305.163091)"><g><path d="M 5.890625 2.875 C 4.890625 2.414062 4.128906 1.796875 3.609375 1.015625 C 3.097656 0.242188 2.832031 -0.65625 2.8125 -1.6875 C 2.800781 -2.71875 3.054688 -3.804688 3.578125 -4.953125 C 4.117188 -6.128906 4.796875 -7.066406 5.609375 -7.765625 C 6.429688 -8.460938 7.335938 -8.875 8.328125 -9 C 9.316406 -9.132812 10.320312 -8.972656 11.34375 -8.515625 C 12.320312 -8.066406 13.078125 -7.445312 13.609375 -6.65625 C 14.148438 -5.875 14.421875 -4.972656 14.421875 -3.953125 C 14.429688 -2.929688 14.175781 -1.851562 13.65625 -0.71875 C 13.125 0.46875 12.445312 1.410156 11.625 2.109375 C 10.8125 2.816406 9.90625 3.238281 8.90625 3.375 C 7.914062 3.507812 6.910156 3.34375 5.890625 2.875 Z M 6.484375 1.640625 C 7.617188 2.148438 8.6875 2.140625 9.6875 1.609375 C 10.6875 1.085938 11.519531 0.09375 12.1875 -1.375 C 12.820312 -2.769531 13.019531 -3.972656 12.78125 -4.984375 C 12.539062 -6.003906 11.863281 -6.765625 10.75 -7.265625 C 9.613281 -7.785156 8.546875 -7.785156 7.546875 -7.265625 C 6.554688 -6.742188 5.726562 -5.75 5.0625 -4.28125 C 4.414062 -2.875 4.210938 -1.660156 4.453125 -0.640625 C 4.703125 0.367188 5.378906 1.128906 6.484375 1.640625 Z M 6.484375 1.640625 "/></g></g></g><g fill="#000000" fill-opacity="1"><g transform="translate(145.436932, 312.115692)"><g><path d="M 14.703125 -8.4375 C 15.066406 -8.320312 15.203125 -8.113281 15.109375 -7.8125 L 14.984375 -7.40625 C 14.890625 -7.09375 14.660156 -6.992188 14.296875 -7.109375 L 13.859375 -7.234375 L 7.109375 1.71875 C 6.953125 1.9375 6.738281 2.003906 6.46875 1.921875 L 5.96875 1.78125 C 5.695312 1.695312 5.554688 1.519531 5.546875 1.25 L 4.796875 -9.9375 L 4.359375 -10.0625 C 4.003906 -10.164062 3.875 -10.375 3.96875 -10.6875 L 4.09375 -11.09375 C 4.1875 -11.394531 4.410156 -11.492188 4.765625 -11.390625 L 7.21875 -10.65625 C 7.582031 -10.550781 7.71875 -10.347656 7.625 -10.046875 L 7.5 -9.640625 C 7.40625 -9.328125 7.175781 -9.222656 6.8125 -9.328125 L 6.375 -9.46875 L 6.921875 -0.28125 L 12.421875 -7.65625 L 11.984375 -7.796875 C 11.628906 -7.898438 11.5 -8.109375 11.59375 -8.421875 L 11.71875 -8.828125 C 11.8125 -9.128906 12.035156 -9.226562 12.390625 -9.125 Z M 14.703125 -8.4375 "/></g></g></g><g fill="#000000" fill-opacity="1"><g transform="translate(161.804554, 316.671037)"><g><path d="M 10.09375 -1.65625 C 10.25 -1.632812 10.359375 -1.566406 10.421875 -1.453125 C 10.484375 -1.347656 10.5 -1.203125 10.46875 -1.015625 L 10.15625 0.953125 C 10.125 1.128906 10.03125 1.273438 9.875 1.390625 C 9.726562 1.503906 9.550781 1.546875 9.34375 1.515625 L 1.65625 0.265625 C 1.269531 0.203125 1.101562 0.015625 1.15625 -0.296875 L 1.21875 -0.71875 C 1.269531 -1.039062 1.488281 -1.171875 1.875 -1.109375 L 2.3125 -1.03125 L 3.828125 -10.40625 L 3.390625 -10.484375 C 3.003906 -10.546875 2.835938 -10.738281 2.890625 -11.0625 L 2.96875 -11.484375 C 3.007812 -11.796875 3.222656 -11.921875 3.609375 -11.859375 L 11.21875 -10.625 C 11.414062 -10.59375 11.566406 -10.5 11.671875 -10.34375 C 11.785156 -10.1875 11.828125 -10.015625 11.796875 -9.828125 L 11.546875 -8.21875 C 11.484375 -7.832031 11.296875 -7.664062 10.984375 -7.71875 L 10.53125 -7.78125 C 10.238281 -7.832031 10.125 -8.050781 10.1875 -8.4375 L 10.328125 -9.359375 L 5.390625 -10.15625 L 4.78125 -6.359375 L 8.59375 -5.75 C 8.726562 -5.726562 8.835938 -5.660156 8.921875 -5.546875 C 9.003906 -5.429688 9.035156 -5.3125 9.015625 -5.1875 L 8.953125 -4.8125 C 8.929688 -4.675781 8.863281 -4.566406 8.75 -4.484375 C 8.632812 -4.398438 8.507812 -4.367188 8.375 -4.390625 L 4.5625 -5 L 3.875 -0.78125 L 8.90625 0.03125 L 9.109375 -1.234375 C 9.171875 -1.609375 9.351562 -1.769531 9.65625 -1.71875 Z M 10.09375 -1.65625 "/></g></g></g><g fill="#000000" fill-opacity="1"><g transform="translate(177.037231, 318.905192)"><g><path d="M 10.984375 -1.015625 C 11.148438 -1.015625 11.285156 -0.96875 11.390625 -0.875 C 11.492188 -0.789062 11.546875 -0.671875 11.546875 -0.515625 L 11.53125 -0.078125 C 11.519531 0.234375 11.320312 0.382812 10.9375 0.375 L 9.46875 0.3125 C 9.269531 0.3125 9.117188 0.21875 9.015625 0.03125 L 7.140625 -3.203125 C 6.835938 -3.753906 6.597656 -4.128906 6.421875 -4.328125 C 6.253906 -4.535156 6.0625 -4.671875 5.84375 -4.734375 C 5.632812 -4.804688 5.285156 -4.851562 4.796875 -4.875 L 3.875 -4.90625 L 3.75 -1.265625 L 4.203125 -1.25 C 4.585938 -1.238281 4.773438 -1.070312 4.765625 -0.75 L 4.75 -0.3125 C 4.738281 0 4.539062 0.148438 4.15625 0.140625 L 1.671875 0.0625 C 1.285156 0.0390625 1.097656 -0.125 1.109375 -0.4375 L 1.125 -0.875 C 1.132812 -1.195312 1.332031 -1.347656 1.71875 -1.328125 L 2.171875 -1.3125 L 2.5 -10.8125 L 2.046875 -10.828125 C 1.660156 -10.847656 1.472656 -11.019531 1.484375 -11.34375 L 1.5 -11.78125 C 1.507812 -12.09375 1.707031 -12.238281 2.09375 -12.21875 L 6.03125 -12.09375 C 9.113281 -11.988281 10.613281 -10.8125 10.53125 -8.5625 C 10.5 -7.65625 10.222656 -6.898438 9.703125 -6.296875 C 9.191406 -5.703125 8.492188 -5.304688 7.609375 -5.109375 C 7.921875 -4.890625 8.226562 -4.5 8.53125 -3.9375 L 10.1875 -1.046875 Z M 5.84375 -6.234375 C 6.863281 -6.203125 7.625 -6.378906 8.125 -6.765625 C 8.625 -7.148438 8.882812 -7.753906 8.90625 -8.578125 C 8.9375 -9.296875 8.710938 -9.820312 8.234375 -10.15625 C 7.765625 -10.488281 7 -10.671875 5.9375 -10.703125 L 4.078125 -10.765625 L 3.921875 -6.296875 Z M 5.84375 -6.234375 "/></g></g></g><g fill="#000000" fill-opacity="1"><g transform="translate(193.096126, 319.076668)"><g/></g></g><g fill="#000000" fill-opacity="1"><g transform="translate(201.666883, 318.479747)"><g><path d="M 8.640625 -4.625 C 8.785156 -4.65625 8.90625 -4.628906 9 -4.546875 C 9.09375 -4.460938 9.148438 -4.328125 9.171875 -4.140625 L 9.484375 -2.1875 C 9.515625 -2.007812 9.472656 -1.84375 9.359375 -1.6875 C 9.253906 -1.53125 9.101562 -1.4375 8.90625 -1.40625 L 1.65625 -0.265625 C 1.269531 -0.203125 1.050781 -0.328125 1 -0.640625 L 0.9375 -1.0625 C 0.882812 -1.382812 1.050781 -1.578125 1.4375 -1.640625 L 1.875 -1.703125 L 0.390625 -11.078125 L -0.046875 -11.015625 C -0.429688 -10.953125 -0.648438 -11.082031 -0.703125 -11.40625 L -0.765625 -11.84375 C -0.816406 -12.144531 -0.648438 -12.328125 -0.265625 -12.390625 L 2.984375 -12.90625 C 3.367188 -12.957031 3.585938 -12.832031 3.640625 -12.53125 L 3.703125 -12.09375 C 3.753906 -11.769531 3.585938 -11.582031 3.203125 -11.53125 L 1.953125 -11.328125 L 3.4375 -1.953125 L 8 -2.671875 L 7.796875 -3.921875 C 7.742188 -4.296875 7.878906 -4.507812 8.203125 -4.5625 Z M 8.640625 -4.625 "/></g></g></g><g fill="#000000" fill-opacity="1"><g transform="translate(216.079202, 316.016096)"><g><path d="M 7.515625 -14.96875 C 7.890625 -15.082031 8.117188 -14.988281 8.203125 -14.6875 L 8.328125 -14.265625 C 8.421875 -13.953125 8.28125 -13.738281 7.90625 -13.625 L 7.46875 -13.5 L 9.09375 -7.890625 C 9.5625 -6.273438 9.550781 -4.925781 9.0625 -3.84375 C 8.582031 -2.769531 7.632812 -2.03125 6.21875 -1.625 C 4.8125 -1.21875 3.613281 -1.316406 2.625 -1.921875 C 1.644531 -2.535156 0.929688 -3.613281 0.484375 -5.15625 L -1.203125 -10.984375 L -1.640625 -10.859375 C -2.003906 -10.753906 -2.234375 -10.859375 -2.328125 -11.171875 L -2.453125 -11.59375 C -2.535156 -11.894531 -2.394531 -12.097656 -2.03125 -12.203125 L 0.375 -12.90625 C 0.738281 -13.007812 0.960938 -12.910156 1.046875 -12.609375 L 1.171875 -12.1875 C 1.265625 -11.875 1.128906 -11.664062 0.765625 -11.5625 L 0.3125 -11.421875 L 2 -5.609375 C 2.34375 -4.421875 2.828125 -3.609375 3.453125 -3.171875 C 4.078125 -2.742188 4.875 -2.671875 5.84375 -2.953125 C 6.8125 -3.234375 7.429688 -3.738281 7.703125 -4.46875 C 7.984375 -5.207031 7.941406 -6.203125 7.578125 -7.453125 L 5.953125 -13.0625 L 5.5 -12.9375 C 5.132812 -12.820312 4.90625 -12.921875 4.8125 -13.234375 L 4.6875 -13.65625 C 4.601562 -13.957031 4.742188 -14.164062 5.109375 -14.28125 Z M 7.515625 -14.96875 "/></g></g></g><g fill="#000000" fill-opacity="1"><g transform="translate(232.222199, 311.048486)"><g><path d="M 9.96875 -5.953125 C 10.132812 -6.023438 10.28125 -6.046875 10.40625 -6.015625 C 10.53125 -5.984375 10.625 -5.894531 10.6875 -5.75 L 10.875 -5.34375 C 10.9375 -5.21875 10.9375 -5.09375 10.875 -4.96875 C 10.8125 -4.851562 10.695312 -4.757812 10.53125 -4.6875 L 7.953125 -3.53125 C 7.597656 -3.375 7.359375 -3.4375 7.234375 -3.71875 L 7.046875 -4.125 C 6.921875 -4.414062 7.035156 -4.640625 7.390625 -4.796875 L 7.859375 -5.015625 L 3.75 -7.375 L 2.75 -2.734375 L 3.1875 -2.9375 C 3.53125 -3.082031 3.765625 -3.007812 3.890625 -2.71875 L 4.078125 -2.3125 C 4.203125 -2.03125 4.09375 -1.816406 3.75 -1.671875 L 1.328125 -0.59375 C 0.984375 -0.4375 0.75 -0.5 0.625 -0.78125 L 0.4375 -1.1875 C 0.3125 -1.476562 0.421875 -1.703125 0.765625 -1.859375 L 1.171875 -2.046875 L 2.5 -7.859375 L -2.578125 -10.765625 L -2.984375 -10.59375 C -3.335938 -10.4375 -3.582031 -10.503906 -3.71875 -10.796875 L -3.890625 -11.203125 C -4.015625 -11.484375 -3.898438 -11.703125 -3.546875 -11.859375 L -0.953125 -13.015625 C -0.597656 -13.171875 -0.359375 -13.109375 -0.234375 -12.828125 L -0.0625 -12.421875 C 0.0703125 -12.128906 -0.0351562 -11.90625 -0.390625 -11.75 L -0.875 -11.53125 L 3.078125 -9.265625 L 4.046875 -13.71875 L 3.609375 -13.53125 C 3.453125 -13.457031 3.304688 -13.4375 3.171875 -13.46875 C 3.046875 -13.507812 2.953125 -13.597656 2.890625 -13.734375 L 2.71875 -14.140625 C 2.65625 -14.273438 2.65625 -14.398438 2.71875 -14.515625 C 2.78125 -14.628906 2.890625 -14.722656 3.046875 -14.796875 L 5.453125 -15.859375 C 5.804688 -16.015625 6.046875 -15.953125 6.171875 -15.671875 L 6.34375 -15.265625 C 6.476562 -14.972656 6.367188 -14.75 6.015625 -14.59375 L 5.609375 -14.40625 L 4.34375 -8.75 L 9.5625 -5.765625 Z M 9.96875 -5.953125 "/></g></g></g><g fill="#000000" fill-opacity="1"><g transform="translate(247.669485, 303.8792)"><g><path d="M 3.234375 -16.4375 C 3.566406 -16.644531 3.8125 -16.613281 3.96875 -16.34375 L 4.203125 -15.96875 C 4.378906 -15.695312 4.300781 -15.457031 3.96875 -15.25 L 3.578125 -15.015625 L 6.640625 -10.046875 C 7.523438 -8.609375 7.878906 -7.304688 7.703125 -6.140625 C 7.523438 -4.984375 6.8125 -4.015625 5.5625 -3.234375 C 4.320312 -2.460938 3.144531 -2.238281 2.03125 -2.5625 C 0.914062 -2.882812 -0.0625 -3.726562 -0.90625 -5.09375 L -4.09375 -10.265625 L -4.484375 -10.03125 C -4.804688 -9.820312 -5.054688 -9.851562 -5.234375 -10.125 L -5.46875 -10.5 C -5.625 -10.769531 -5.539062 -11.007812 -5.21875 -11.21875 L -3.09375 -12.53125 C -2.757812 -12.726562 -2.515625 -12.691406 -2.359375 -12.421875 L -2.125 -12.046875 C -1.945312 -11.773438 -2.023438 -11.539062 -2.359375 -11.34375 L -2.75 -11.09375 L 0.4375 -5.9375 C 1.082031 -4.882812 1.757812 -4.226562 2.46875 -3.96875 C 3.1875 -3.71875 3.976562 -3.859375 4.84375 -4.390625 C 5.695312 -4.921875 6.160156 -5.578125 6.234375 -6.359375 C 6.304688 -7.148438 6 -8.101562 5.3125 -9.21875 L 2.25 -14.1875 L 1.84375 -13.9375 C 1.519531 -13.738281 1.269531 -13.773438 1.09375 -14.046875 L 0.859375 -14.421875 C 0.703125 -14.691406 0.785156 -14.925781 1.109375 -15.125 Z M 3.234375 -16.4375 "/></g></g></g><g fill="#000000" fill-opacity="1"><g transform="translate(261.865505, 294.765823)"><g><path d="M 7.59375 -8 C 7.71875 -8.113281 7.847656 -8.171875 7.984375 -8.171875 C 8.117188 -8.171875 8.234375 -8.113281 8.328125 -8 L 8.609375 -7.65625 C 8.804688 -7.414062 8.757812 -7.171875 8.46875 -6.921875 L 7.328125 -6 C 7.171875 -5.875 6.992188 -5.84375 6.796875 -5.90625 L 3.265625 -7.109375 C 2.671875 -7.316406 2.242188 -7.441406 1.984375 -7.484375 C 1.722656 -7.535156 1.484375 -7.515625 1.265625 -7.421875 C 1.054688 -7.328125 0.765625 -7.128906 0.390625 -6.828125 L -0.328125 -6.234375 L 1.984375 -3.421875 L 2.34375 -3.71875 C 2.632812 -3.957031 2.878906 -3.953125 3.078125 -3.703125 L 3.359375 -3.359375 C 3.554688 -3.117188 3.507812 -2.878906 3.21875 -2.640625 L 1.296875 -1.0625 C 0.992188 -0.8125 0.742188 -0.804688 0.546875 -1.046875 L 0.265625 -1.390625 C 0.0664062 -1.640625 0.117188 -1.890625 0.421875 -2.140625 L 0.765625 -2.421875 L -5.265625 -9.765625 L -5.609375 -9.484375 C -5.910156 -9.234375 -6.160156 -9.234375 -6.359375 -9.484375 L -6.640625 -9.828125 C -6.835938 -10.066406 -6.785156 -10.3125 -6.484375 -10.5625 L -3.4375 -13.046875 C -1.050781 -15.003906 0.851562 -15.113281 2.28125 -13.375 C 2.851562 -12.675781 3.140625 -11.929688 3.140625 -11.140625 C 3.148438 -10.347656 2.882812 -9.582031 2.34375 -8.84375 C 2.71875 -8.894531 3.207031 -8.804688 3.8125 -8.578125 L 6.96875 -7.5 Z M 0.296875 -8.53125 C 1.078125 -9.175781 1.523438 -9.804688 1.640625 -10.421875 C 1.753906 -11.046875 1.550781 -11.675781 1.03125 -12.3125 C 0.570312 -12.875 0.0546875 -13.117188 -0.515625 -13.046875 C -1.085938 -12.984375 -1.785156 -12.617188 -2.609375 -11.953125 L -4.046875 -10.765625 L -1.203125 -7.3125 Z M 0.296875 -8.53125 "/></g></g></g><g fill="#000000" fill-opacity="1"><g transform="translate(274.290133, 284.264484)"><g><path d="M -1.234375 -16.640625 C -0.972656 -16.921875 -0.734375 -16.953125 -0.515625 -16.734375 L -0.1875 -16.4375 C 0.0507812 -16.21875 0.0390625 -15.96875 -0.21875 -15.6875 L -0.53125 -15.359375 L 1.421875 -8.390625 L 3.84375 -6.125 L 4.140625 -6.453125 C 4.410156 -6.734375 4.664062 -6.765625 4.90625 -6.546875 L 5.21875 -6.25 C 5.445312 -6.03125 5.425781 -5.78125 5.15625 -5.5 L 3.453125 -3.6875 C 3.191406 -3.40625 2.945312 -3.375 2.71875 -3.59375 L 2.40625 -3.890625 C 2.164062 -4.109375 2.175781 -4.359375 2.4375 -4.640625 L 2.75 -4.984375 L 0.328125 -7.25 L -6.734375 -8.734375 L -7.046875 -8.40625 C -7.304688 -8.125 -7.554688 -8.09375 -7.796875 -8.3125 L -8.125 -8.609375 C -8.34375 -8.828125 -8.320312 -9.078125 -8.0625 -9.359375 L -6.203125 -11.328125 C -5.953125 -11.609375 -5.71875 -11.640625 -5.5 -11.421875 L -5.171875 -11.125 C -4.929688 -10.90625 -4.9375 -10.65625 -5.1875 -10.375 L -5.5 -10.046875 L -0.125 -8.875 L -1.625 -14.171875 L -1.96875 -13.828125 C -2.21875 -13.554688 -2.460938 -13.53125 -2.703125 -13.75 L -3.03125 -14.046875 C -3.25 -14.265625 -3.234375 -14.507812 -2.984375 -14.78125 Z M -1.234375 -16.640625 "/></g></g></g><g fill="#000000" fill-opacity="1"><g transform="translate(285.23666, 272.02851)"><g/></g></g></svg>