<svg xmlns="http://www.w3.org/2000/svg" xmlns:xlink="http://www.w3.org/1999/xlink" width="500" zoomAndPan="magnify" viewBox="0 0 375 374.999991" height="500" preserveAspectRatio="xMidYMid meet" version="1.0"><defs><g/></defs><g fill="#231f20" fill-opacity="1"><g transform="translate(118.139052, 194.624987)"><g><path d="M 17.0625 -10.09375 C 17.082031 -10.300781 17.164062 -10.410156 17.3125 -10.421875 C 17.457031 -10.441406 17.613281 -10.394531 17.78125 -10.28125 C 17.957031 -10.175781 18.109375 -10.039062 18.234375 -9.875 C 18.367188 -9.71875 18.425781 -9.566406 18.40625 -9.421875 C 18.269531 -8.273438 18.039062 -7.148438 17.71875 -6.046875 C 17.40625 -4.941406 16.976562 -3.878906 16.4375 -2.859375 C 15.894531 -1.847656 15.28125 -0.894531 14.59375 0 C 14.3125 0.375 13.960938 0.78125 13.546875 1.21875 C 13.128906 1.65625 12.671875 1.921875 12.171875 2.015625 C 11.734375 2.117188 11.335938 2.019531 10.984375 1.71875 C 10.628906 1.414062 10.382812 1.070312 10.25 0.6875 C 10.082031 0.25 10.023438 -0.210938 10.078125 -0.703125 C 10.140625 -1.191406 10.195312 -1.65625 10.25 -2.09375 C 10.28125 -2.382812 10.3125 -2.671875 10.34375 -2.953125 C 10.382812 -3.242188 10.421875 -3.53125 10.453125 -3.8125 C 9.796875 -2.800781 9.128906 -1.84375 8.453125 -0.9375 C 7.648438 0.144531 6.800781 1.191406 5.90625 2.203125 C 5.539062 2.640625 5.15625 3.050781 4.75 3.4375 C 4.34375 3.820312 3.863281 4.085938 3.3125 4.234375 C 3.050781 4.304688 2.785156 4.21875 2.515625 3.96875 C 2.253906 3.726562 2.128906 3.488281 2.140625 3.25 C 2.191406 2.09375 2.425781 0.976562 2.84375 -0.09375 C 3.269531 -1.175781 3.703125 -2.238281 4.140625 -3.28125 C 4.597656 -4.40625 5.054688 -5.53125 5.515625 -6.65625 C 5.984375 -7.789062 6.453125 -8.921875 6.921875 -10.046875 C 7.035156 -10.347656 7.15625 -10.644531 7.28125 -10.9375 C 7.40625 -11.238281 7.53125 -11.539062 7.65625 -11.84375 C 7.6875 -11.945312 7.722656 -12.050781 7.765625 -12.15625 C 7.804688 -12.269531 7.84375 -12.375 7.875 -12.46875 C 7.875 -12.488281 7.875 -12.503906 7.875 -12.515625 C 7.875 -12.535156 7.875 -12.554688 7.875 -12.578125 C 7.863281 -12.578125 7.847656 -12.578125 7.828125 -12.578125 C 7.628906 -12.410156 7.394531 -12.273438 7.125 -12.171875 C 6.863281 -12.066406 6.625 -11.945312 6.40625 -11.8125 C 5.988281 -11.539062 5.578125 -11.25 5.171875 -10.9375 C 4.648438 -10.507812 4.132812 -10.023438 3.625 -9.484375 C 3.125 -8.953125 2.726562 -8.363281 2.4375 -7.71875 C 2.144531 -7.082031 2.03125 -6.40625 2.09375 -5.6875 C 2.125 -5.476562 2.050781 -5.367188 1.875 -5.359375 C 1.695312 -5.359375 1.550781 -5.378906 1.4375 -5.421875 C 1.269531 -5.515625 1.125 -5.644531 1 -5.8125 C 0.875 -5.976562 0.789062 -6.160156 0.75 -6.359375 C 0.664062 -7.179688 0.796875 -7.957031 1.140625 -8.6875 C 1.492188 -9.425781 1.957031 -10.101562 2.53125 -10.71875 C 3.113281 -11.332031 3.707031 -11.867188 4.3125 -12.328125 C 4.570312 -12.523438 4.875 -12.75 5.21875 -13 C 5.5625 -13.25 5.910156 -13.46875 6.265625 -13.65625 C 6.628906 -13.84375 6.988281 -13.953125 7.34375 -13.984375 C 7.820312 -14.015625 8.242188 -13.835938 8.609375 -13.453125 C 8.984375 -13.066406 9.1875 -12.648438 9.21875 -12.203125 C 9.25 -11.929688 9.21875 -11.660156 9.125 -11.390625 C 9.03125 -11.117188 8.9375 -10.859375 8.84375 -10.609375 C 8.6875 -10.234375 8.53125 -9.863281 8.375 -9.5 C 8.226562 -9.144531 8.078125 -8.78125 7.921875 -8.40625 C 7.640625 -7.71875 7.359375 -7.023438 7.078125 -6.328125 C 6.804688 -5.640625 6.523438 -4.953125 6.234375 -4.265625 C 5.953125 -3.578125 5.671875 -2.890625 5.390625 -2.203125 C 5.109375 -1.523438 4.828125 -0.847656 4.546875 -0.171875 C 4.410156 0.191406 4.273438 0.5625 4.140625 0.9375 C 4.003906 1.320312 3.882812 1.703125 3.78125 2.078125 C 3.988281 1.890625 4.179688 1.6875 4.359375 1.46875 C 4.546875 1.257812 4.734375 1.046875 4.921875 0.828125 C 5.734375 -0.109375 6.515625 -1.082031 7.265625 -2.09375 C 8.785156 -4.132812 10.164062 -6.296875 11.40625 -8.578125 C 11.457031 -8.765625 11.59375 -8.832031 11.8125 -8.78125 C 11.96875 -8.75 12.128906 -8.664062 12.296875 -8.53125 C 12.460938 -8.394531 12.585938 -8.242188 12.671875 -8.078125 C 12.753906 -7.910156 12.765625 -7.757812 12.703125 -7.625 C 12.453125 -6.78125 12.25 -5.914062 12.09375 -5.03125 C 11.945312 -4.15625 11.8125 -3.269531 11.6875 -2.375 C 11.632812 -1.957031 11.585938 -1.535156 11.546875 -1.109375 C 11.503906 -0.691406 11.46875 -0.269531 11.4375 0.15625 C 11.414062 0.320312 11.414062 0.472656 11.4375 0.609375 C 11.4375 0.640625 11.4375 0.664062 11.4375 0.6875 C 11.4375 0.664062 11.445312 0.65625 11.46875 0.65625 C 11.644531 0.5 11.832031 0.363281 12.03125 0.25 C 12.226562 0.132812 12.410156 -0.015625 12.578125 -0.203125 C 13.429688 -1.046875 14.171875 -2.007812 14.796875 -3.09375 C 15.421875 -4.175781 15.921875 -5.316406 16.296875 -6.515625 C 16.671875 -7.722656 16.925781 -8.914062 17.0625 -10.09375 Z M 17.0625 -10.09375 "/></g></g></g><g fill="#231f20" fill-opacity="1"><g transform="translate(137.272691, 194.624987)"><g><path d="M 4.765625 -3.125 C 4.921875 -3.257812 5.09375 -3.289062 5.28125 -3.21875 C 5.476562 -3.144531 5.617188 -3.019531 5.703125 -2.84375 C 5.785156 -2.664062 5.753906 -2.507812 5.609375 -2.375 C 5.203125 -2.039062 4.785156 -1.707031 4.359375 -1.375 C 3.929688 -1.050781 3.5 -0.734375 3.0625 -0.421875 C 2.6875 -0.191406 2.296875 0.046875 1.890625 0.296875 C 1.484375 0.554688 1.070312 0.734375 0.65625 0.828125 C 0.320312 0.878906 0.0078125 0.828125 -0.28125 0.671875 C -0.582031 0.523438 -0.820312 0.3125 -1 0.03125 C -1.1875 -0.238281 -1.28125 -0.546875 -1.28125 -0.890625 C -1.300781 -1.441406 -1.148438 -2.015625 -0.828125 -2.609375 C -0.515625 -3.210938 -0.222656 -3.75 0.046875 -4.21875 C 0.148438 -4.363281 0.285156 -4.421875 0.453125 -4.390625 C 0.617188 -4.359375 0.785156 -4.273438 0.953125 -4.140625 C 1.128906 -4.003906 1.257812 -3.851562 1.34375 -3.6875 C 1.425781 -3.519531 1.429688 -3.375 1.359375 -3.25 C 1.140625 -2.882812 0.9375 -2.507812 0.75 -2.125 C 0.570312 -1.75 0.40625 -1.367188 0.25 -0.984375 C 0.21875 -0.878906 0.175781 -0.769531 0.125 -0.65625 C 0.476562 -0.707031 0.941406 -0.867188 1.515625 -1.140625 C 2.085938 -1.410156 2.671875 -1.722656 3.265625 -2.078125 C 3.867188 -2.441406 4.367188 -2.789062 4.765625 -3.125 Z M 2.5 -5.75 C 2.394531 -5.550781 2.21875 -5.5 1.96875 -5.59375 C 1.726562 -5.695312 1.515625 -5.863281 1.328125 -6.09375 C 1.148438 -6.320312 1.101562 -6.53125 1.1875 -6.71875 C 1.332031 -7.019531 1.4375 -7.238281 1.5 -7.375 C 1.570312 -7.519531 1.609375 -7.59375 1.609375 -7.59375 C 1.710938 -7.75 1.847656 -7.8125 2.015625 -7.78125 C 2.179688 -7.757812 2.34375 -7.679688 2.5 -7.546875 C 2.664062 -7.410156 2.796875 -7.257812 2.890625 -7.09375 C 2.984375 -6.925781 2.992188 -6.773438 2.921875 -6.640625 C 2.921875 -6.640625 2.894531 -6.582031 2.84375 -6.46875 C 2.800781 -6.363281 2.6875 -6.125 2.5 -5.75 Z M 2.5 -5.75 "/></g></g></g><g fill="#231f20" fill-opacity="1"><g transform="translate(142.220177, 194.624987)"><g><path d="M 5.78125 -3.109375 C 5.9375 -3.253906 6.097656 -3.289062 6.265625 -3.21875 C 6.429688 -3.15625 6.554688 -3.039062 6.640625 -2.875 C 6.722656 -2.707031 6.691406 -2.550781 6.546875 -2.40625 C 5.972656 -1.78125 5.289062 -1.210938 4.5 -0.703125 C 3.71875 -0.203125 2.925781 0.171875 2.125 0.421875 C 1.738281 0.546875 1.363281 0.609375 1 0.609375 C 0.632812 0.617188 0.3125 0.457031 0.03125 0.125 C -0.257812 -0.226562 -0.4375 -0.613281 -0.5 -1.03125 C -0.570312 -1.457031 -0.554688 -1.890625 -0.453125 -2.328125 C -0.335938 -2.910156 -0.175781 -3.492188 0.03125 -4.078125 C 0.25 -4.660156 0.457031 -5.238281 0.65625 -5.8125 C 1.0625 -7 1.484375 -8.191406 1.921875 -9.390625 C 2.367188 -10.617188 2.832031 -11.847656 3.3125 -13.078125 C 3.800781 -14.304688 4.304688 -15.523438 4.828125 -16.734375 C 4.890625 -16.890625 5 -16.957031 5.15625 -16.9375 C 5.320312 -16.925781 5.488281 -16.851562 5.65625 -16.71875 C 5.820312 -16.582031 5.957031 -16.425781 6.0625 -16.25 C 6.164062 -16.070312 6.179688 -15.914062 6.109375 -15.78125 C 5.554688 -14.445312 5.019531 -13.109375 4.5 -11.765625 C 3.976562 -10.429688 3.472656 -9.09375 2.984375 -7.75 C 2.492188 -6.414062 2.03125 -5.078125 1.59375 -3.734375 C 1.507812 -3.515625 1.394531 -3.234375 1.25 -2.890625 C 1.101562 -2.546875 0.972656 -2.179688 0.859375 -1.796875 C 0.753906 -1.421875 0.71875 -1.070312 0.75 -0.75 C 1.375 -0.851562 2.03125 -1.039062 2.71875 -1.3125 C 3.414062 -1.582031 4.039062 -1.882812 4.59375 -2.21875 C 5.144531 -2.5625 5.539062 -2.859375 5.78125 -3.109375 Z M 5.78125 -3.109375 "/></g></g></g><g fill="#231f20" fill-opacity="1"><g transform="translate(148.101627, 194.624987)"><g><path d="M 10 -14.4375 C 10.21875 -14.375 10.421875 -14.234375 10.609375 -14.015625 C 10.804688 -13.796875 10.890625 -13.59375 10.859375 -13.40625 C 10.859375 -13.375 10.847656 -13.34375 10.828125 -13.3125 C 9.535156 -10.769531 8.28125 -8.210938 7.0625 -5.640625 C 5.851562 -3.078125 4.785156 -0.445312 3.859375 2.25 C 3.804688 2.414062 3.703125 2.484375 3.546875 2.453125 C 3.390625 2.429688 3.222656 2.359375 3.046875 2.234375 C 2.878906 2.109375 2.742188 1.957031 2.640625 1.78125 C 2.546875 1.601562 2.523438 1.4375 2.578125 1.28125 C 2.765625 0.75 2.953125 0.210938 3.140625 -0.328125 C 3.335938 -0.878906 3.546875 -1.414062 3.765625 -1.9375 C 3.117188 -1.269531 2.421875 -0.65625 1.671875 -0.09375 C 0.929688 0.457031 0.0976562 0.898438 -0.828125 1.234375 C -0.992188 1.304688 -1.175781 1.273438 -1.375 1.140625 C -1.570312 1.015625 -1.722656 0.851562 -1.828125 0.65625 C -1.941406 0.457031 -1.976562 0.269531 -1.9375 0.09375 C -1.769531 -0.65625 -1.484375 -1.390625 -1.078125 -2.109375 C -0.679688 -2.828125 -0.171875 -3.421875 0.453125 -3.890625 C 0.890625 -4.222656 1.359375 -4.375 1.859375 -4.34375 C 2.367188 -4.320312 2.8125 -4.144531 3.1875 -3.8125 C 3.28125 -3.925781 3.367188 -4.035156 3.453125 -4.140625 C 4.671875 -5.691406 5.765625 -7.328125 6.734375 -9.046875 C 7.710938 -10.773438 8.640625 -12.515625 9.515625 -14.265625 C 9.535156 -14.285156 9.546875 -14.300781 9.546875 -14.3125 C 9.609375 -14.414062 9.707031 -14.46875 9.84375 -14.46875 C 9.894531 -14.46875 9.945312 -14.457031 10 -14.4375 Z M 0.09375 -0.90625 C 0.550781 -1.195312 0.984375 -1.519531 1.390625 -1.875 C 1.796875 -2.238281 2.179688 -2.625 2.546875 -3.03125 C 2.515625 -3.050781 2.488281 -3.0625 2.46875 -3.0625 C 2.425781 -3.0625 2.378906 -3.054688 2.328125 -3.046875 C 2.273438 -3.035156 2.222656 -3.019531 2.171875 -3 C 2.035156 -2.96875 1.90625 -2.910156 1.78125 -2.828125 C 1.65625 -2.742188 1.539062 -2.660156 1.4375 -2.578125 C 1.269531 -2.421875 1.109375 -2.257812 0.953125 -2.09375 C 0.804688 -1.925781 0.664062 -1.757812 0.53125 -1.59375 C 0.375 -1.375 0.226562 -1.144531 0.09375 -0.90625 Z M 0.09375 -0.90625 "/></g></g></g><g fill="#231f20" fill-opacity="1"><g transform="translate(156.229633, 194.624987)"><g/></g></g><g fill="#231f20" fill-opacity="1"><g transform="translate(165.745967, 194.624987)"><g><path d="M 13.1875 2.21875 C 13.269531 2.34375 13.332031 2.488281 13.375 2.65625 C 13.414062 2.820312 13.351562 2.945312 13.1875 3.03125 C 13.007812 3.113281 12.820312 3.078125 12.625 2.921875 C 12.4375 2.773438 12.300781 2.648438 12.21875 2.546875 C 12.101562 2.359375 11.914062 2.25 11.65625 2.21875 C 11.394531 2.1875 11.125 2.179688 10.84375 2.203125 C 10.5625 2.234375 10.332031 2.265625 10.15625 2.296875 C 9.675781 2.378906 9.207031 2.476562 8.75 2.59375 C 8.289062 2.71875 7.832031 2.847656 7.375 2.984375 C 5.488281 3.585938 3.710938 4.421875 2.046875 5.484375 C 1.910156 5.566406 1.742188 5.566406 1.546875 5.484375 C 1.359375 5.398438 1.1875 5.269531 1.03125 5.09375 C 0.882812 4.925781 0.789062 4.757812 0.75 4.59375 C 0.71875 4.476562 0.71875 4.378906 0.75 4.296875 C 1.3125 2.984375 1.863281 1.671875 2.40625 0.359375 C 2.957031 -0.941406 3.507812 -2.25 4.0625 -3.5625 C 4.582031 -4.769531 5.113281 -6.003906 5.65625 -7.265625 C 6.207031 -8.535156 6.566406 -9.828125 6.734375 -11.140625 C 6.753906 -11.304688 6.769531 -11.472656 6.78125 -11.640625 C 6.800781 -11.804688 6.8125 -11.972656 6.8125 -12.140625 C 6.8125 -12.265625 6.804688 -12.382812 6.796875 -12.5 C 6.796875 -12.738281 6.757812 -12.769531 6.6875 -12.59375 C 6.46875 -12.5625 6.234375 -12.4375 5.984375 -12.21875 C 5.742188 -12 5.550781 -11.820312 5.40625 -11.6875 C 4.726562 -11.050781 4.171875 -10.285156 3.734375 -9.390625 C 3.378906 -8.671875 3.101562 -7.898438 2.90625 -7.078125 C 2.71875 -6.265625 2.679688 -5.460938 2.796875 -4.671875 C 2.816406 -4.472656 2.738281 -4.367188 2.5625 -4.359375 C 2.382812 -4.347656 2.242188 -4.367188 2.140625 -4.421875 C 1.742188 -4.617188 1.519531 -4.929688 1.46875 -5.359375 C 1.34375 -6.179688 1.378906 -7.03125 1.578125 -7.90625 C 1.773438 -8.78125 2.054688 -9.585938 2.421875 -10.328125 C 2.628906 -10.734375 2.859375 -11.125 3.109375 -11.5 C 3.359375 -11.875 3.632812 -12.234375 3.9375 -12.578125 C 4.226562 -12.859375 4.570312 -13.160156 4.96875 -13.484375 C 5.363281 -13.804688 5.769531 -13.972656 6.1875 -13.984375 C 6.625 -13.984375 7.003906 -13.816406 7.328125 -13.484375 C 7.660156 -13.160156 7.882812 -12.804688 8 -12.421875 C 8.15625 -11.953125 8.203125 -11.457031 8.140625 -10.9375 C 8.085938 -10.414062 8.015625 -9.914062 7.921875 -9.4375 C 7.660156 -8.195312 7.265625 -6.972656 6.734375 -5.765625 C 6.203125 -4.566406 5.691406 -3.378906 5.203125 -2.203125 C 4.828125 -1.328125 4.453125 -0.445312 4.078125 0.4375 C 3.710938 1.320312 3.347656 2.210938 2.984375 3.109375 C 3.722656 2.722656 4.484375 2.378906 5.265625 2.078125 C 6.046875 1.785156 6.847656 1.539062 7.671875 1.34375 C 8.296875 1.164062 8.945312 1.03125 9.625 0.9375 C 10.3125 0.851562 10.960938 0.894531 11.578125 1.0625 C 12.191406 1.226562 12.726562 1.613281 13.1875 2.21875 Z M 13.1875 2.21875 "/></g></g></g><g fill="#231f20" fill-opacity="1"><g transform="translate(174.580759, 194.624987)"><g><path d="M 8.859375 -3.203125 C 9.015625 -3.359375 9.179688 -3.394531 9.359375 -3.3125 C 9.546875 -3.226562 9.675781 -3.09375 9.75 -2.90625 C 9.832031 -2.71875 9.804688 -2.550781 9.671875 -2.40625 C 9.160156 -1.875 8.644531 -1.351562 8.125 -0.84375 C 7.601562 -0.332031 7.050781 0.113281 6.46875 0.5 C 6.175781 0.707031 5.878906 0.859375 5.578125 0.953125 C 5.273438 1.054688 4.960938 1.007812 4.640625 0.8125 C 4.304688 0.601562 4.082031 0.332031 3.96875 0 C 3.863281 -0.320312 3.835938 -0.664062 3.890625 -1.03125 C 3.890625 -1.050781 3.890625 -1.066406 3.890625 -1.078125 C 3.890625 -1.097656 3.894531 -1.117188 3.90625 -1.140625 C 3.507812 -0.765625 3.097656 -0.410156 2.671875 -0.078125 C 2.253906 0.253906 1.8125 0.554688 1.34375 0.828125 C 0.914062 1.085938 0.488281 1.238281 0.0625 1.28125 C -0.363281 1.320312 -0.742188 1.113281 -1.078125 0.65625 C -1.367188 0.269531 -1.472656 -0.191406 -1.390625 -0.734375 C -1.304688 -1.273438 -1.125 -1.796875 -0.84375 -2.296875 C -0.5625 -2.804688 -0.289062 -3.21875 -0.03125 -3.53125 C 0.0703125 -3.65625 0.210938 -3.6875 0.390625 -3.625 C 0.566406 -3.5625 0.726562 -3.453125 0.875 -3.296875 C 1.03125 -3.148438 1.140625 -2.988281 1.203125 -2.8125 C 1.273438 -2.632812 1.257812 -2.488281 1.15625 -2.375 C 0.976562 -2.15625 0.820312 -1.921875 0.6875 -1.671875 C 0.550781 -1.429688 0.429688 -1.1875 0.328125 -0.9375 C 0.210938 -0.6875 0.128906 -0.46875 0.078125 -0.28125 C 0.273438 -0.375 0.46875 -0.492188 0.65625 -0.640625 C 0.851562 -0.785156 1.046875 -0.925781 1.234375 -1.0625 C 1.859375 -1.550781 2.453125 -2.0625 3.015625 -2.59375 C 3.578125 -3.125 4.144531 -3.648438 4.71875 -4.171875 C 4.882812 -4.316406 5.070312 -4.328125 5.28125 -4.203125 C 5.5 -4.078125 5.675781 -3.90625 5.8125 -3.6875 C 5.957031 -3.46875 6.003906 -3.273438 5.953125 -3.109375 C 5.859375 -2.734375 5.753906 -2.359375 5.640625 -1.984375 C 5.535156 -1.617188 5.441406 -1.253906 5.359375 -0.890625 C 5.335938 -0.816406 5.316406 -0.738281 5.296875 -0.65625 C 5.648438 -0.738281 6.054688 -0.929688 6.515625 -1.234375 C 6.972656 -1.535156 7.410156 -1.867188 7.828125 -2.234375 C 8.242188 -2.609375 8.585938 -2.929688 8.859375 -3.203125 Z M 8.859375 -3.203125 "/></g></g></g><g fill="#231f20" fill-opacity="1"><g transform="translate(183.541769, 194.624987)"><g><path d="M 4.390625 -4.46875 C 4.523438 -4.570312 4.679688 -4.585938 4.859375 -4.515625 C 5.035156 -4.453125 5.195312 -4.335938 5.34375 -4.171875 C 5.5 -4.015625 5.601562 -3.851562 5.65625 -3.6875 C 5.707031 -3.53125 5.675781 -3.40625 5.5625 -3.3125 C 5.070312 -2.9375 4.582031 -2.5625 4.09375 -2.1875 C 3.601562 -1.820312 3.113281 -1.453125 2.625 -1.078125 C 3.363281 -0.335938 4.195312 0.15625 5.125 0.40625 C 5.289062 0.4375 5.359375 0.523438 5.328125 0.671875 C 5.296875 0.828125 5.210938 0.984375 5.078125 1.140625 C 4.941406 1.304688 4.785156 1.441406 4.609375 1.546875 C 4.429688 1.660156 4.265625 1.703125 4.109375 1.671875 C 3.054688 1.378906 2.113281 0.789062 1.28125 -0.09375 C 0.945312 0.164062 0.601562 0.425781 0.25 0.6875 C -0.101562 0.945312 -0.445312 1.210938 -0.78125 1.484375 C -0.914062 1.585938 -1.078125 1.597656 -1.265625 1.515625 C -1.453125 1.441406 -1.617188 1.328125 -1.765625 1.171875 C -1.921875 1.023438 -2.019531 0.867188 -2.0625 0.703125 C -2.113281 0.535156 -2.082031 0.410156 -1.96875 0.328125 C -1.582031 0.0234375 -1.195312 -0.265625 -0.8125 -0.546875 C -0.425781 -0.835938 -0.0351562 -1.132812 0.359375 -1.4375 C 0.171875 -1.8125 0.03125 -2.195312 -0.0625 -2.59375 C -0.15625 -3 -0.1875 -3.40625 -0.15625 -3.8125 C -0.132812 -3.96875 -0.0546875 -4.117188 0.078125 -4.265625 C 0.222656 -4.421875 0.390625 -4.539062 0.578125 -4.625 C 0.765625 -4.71875 0.925781 -4.753906 1.0625 -4.734375 C 1.195312 -4.722656 1.253906 -4.617188 1.234375 -4.421875 C 1.203125 -4.066406 1.222656 -3.71875 1.296875 -3.375 C 1.367188 -3.039062 1.492188 -2.722656 1.671875 -2.421875 C 2.117188 -2.753906 2.570312 -3.09375 3.03125 -3.4375 C 3.488281 -3.789062 3.941406 -4.132812 4.390625 -4.46875 Z M 4.390625 -4.46875 "/></g></g></g><g fill="#231f20" fill-opacity="1"><g transform="translate(190.634851, 194.624987)"><g><path d="M 8.859375 -3.203125 C 9.015625 -3.359375 9.179688 -3.394531 9.359375 -3.3125 C 9.546875 -3.226562 9.675781 -3.09375 9.75 -2.90625 C 9.832031 -2.71875 9.804688 -2.550781 9.671875 -2.40625 C 9.160156 -1.875 8.644531 -1.351562 8.125 -0.84375 C 7.601562 -0.332031 7.050781 0.113281 6.46875 0.5 C 6.175781 0.707031 5.878906 0.859375 5.578125 0.953125 C 5.273438 1.054688 4.960938 1.007812 4.640625 0.8125 C 4.304688 0.601562 4.082031 0.332031 3.96875 0 C 3.863281 -0.320312 3.835938 -0.664062 3.890625 -1.03125 C 3.890625 -1.050781 3.890625 -1.066406 3.890625 -1.078125 C 3.890625 -1.097656 3.894531 -1.117188 3.90625 -1.140625 C 3.507812 -0.765625 3.097656 -0.410156 2.671875 -0.078125 C 2.253906 0.253906 1.8125 0.554688 1.34375 0.828125 C 0.914062 1.085938 0.488281 1.238281 0.0625 1.28125 C -0.363281 1.320312 -0.742188 1.113281 -1.078125 0.65625 C -1.367188 0.269531 -1.472656 -0.191406 -1.390625 -0.734375 C -1.304688 -1.273438 -1.125 -1.796875 -0.84375 -2.296875 C -0.5625 -2.804688 -0.289062 -3.21875 -0.03125 -3.53125 C 0.0703125 -3.65625 0.210938 -3.6875 0.390625 -3.625 C 0.566406 -3.5625 0.726562 -3.453125 0.875 -3.296875 C 1.03125 -3.148438 1.140625 -2.988281 1.203125 -2.8125 C 1.273438 -2.632812 1.257812 -2.488281 1.15625 -2.375 C 0.976562 -2.15625 0.820312 -1.921875 0.6875 -1.671875 C 0.550781 -1.429688 0.429688 -1.1875 0.328125 -0.9375 C 0.210938 -0.6875 0.128906 -0.46875 0.078125 -0.28125 C 0.273438 -0.375 0.46875 -0.492188 0.65625 -0.640625 C 0.851562 -0.785156 1.046875 -0.925781 1.234375 -1.0625 C 1.859375 -1.550781 2.453125 -2.0625 3.015625 -2.59375 C 3.578125 -3.125 4.144531 -3.648438 4.71875 -4.171875 C 4.882812 -4.316406 5.070312 -4.328125 5.28125 -4.203125 C 5.5 -4.078125 5.675781 -3.90625 5.8125 -3.6875 C 5.957031 -3.46875 6.003906 -3.273438 5.953125 -3.109375 C 5.859375 -2.734375 5.753906 -2.359375 5.640625 -1.984375 C 5.535156 -1.617188 5.441406 -1.253906 5.359375 -0.890625 C 5.335938 -0.816406 5.316406 -0.738281 5.296875 -0.65625 C 5.648438 -0.738281 6.054688 -0.929688 6.515625 -1.234375 C 6.972656 -1.535156 7.410156 -1.867188 7.828125 -2.234375 C 8.242188 -2.609375 8.585938 -2.929688 8.859375 -3.203125 Z M 8.859375 -3.203125 "/></g></g></g><g fill="#231f20" fill-opacity="1"><g transform="translate(199.59586, 194.624987)"><g><path d="M 4.671875 -3.3125 C 4.753906 -3.175781 4.78125 -3.035156 4.75 -2.890625 C 4.726562 -2.742188 4.625 -2.664062 4.4375 -2.65625 C 4.300781 -2.65625 4.175781 -2.691406 4.0625 -2.765625 C 3.945312 -2.835938 3.835938 -2.9375 3.734375 -3.0625 C 3.566406 -3.0625 3.335938 -2.957031 3.046875 -2.75 C 2.765625 -2.550781 2.570312 -2.414062 2.46875 -2.34375 C 2.289062 -2.207031 2.113281 -2.0625 1.9375 -1.90625 C 1.769531 -1.75 1.601562 -1.582031 1.4375 -1.40625 C 0.71875 -0.632812 0.144531 0.203125 -0.28125 1.109375 C -0.375 1.328125 -0.539062 1.382812 -0.78125 1.28125 C -1.019531 1.1875 -1.226562 1.019531 -1.40625 0.78125 C -1.582031 0.539062 -1.632812 0.335938 -1.5625 0.171875 C -1.289062 -0.578125 -1.007812 -1.316406 -0.71875 -2.046875 C -0.425781 -2.785156 -0.144531 -3.535156 0.125 -4.296875 C 0.195312 -4.460938 0.320312 -4.523438 0.5 -4.484375 C 0.6875 -4.441406 0.875 -4.332031 1.0625 -4.15625 C 1.25 -3.988281 1.375 -3.816406 1.4375 -3.640625 C 2.007812 -4.078125 2.585938 -4.316406 3.171875 -4.359375 C 3.753906 -4.398438 4.253906 -4.050781 4.671875 -3.3125 Z M 4.671875 -3.3125 "/></g></g></g><g fill="#231f20" fill-opacity="1"><g transform="translate(205.729733, 194.624987)"><g><path d="M 10.734375 -3.25 C 10.898438 -3.351562 11.078125 -3.34375 11.265625 -3.21875 C 11.453125 -3.09375 11.578125 -2.929688 11.640625 -2.734375 C 11.703125 -2.546875 11.632812 -2.390625 11.4375 -2.265625 C 10.28125 -1.578125 9.175781 -0.796875 8.125 0.078125 C 7.070312 0.960938 6.0625 1.878906 5.09375 2.828125 C 3.769531 5.585938 2.179688 8.179688 0.328125 10.609375 C 0.210938 10.753906 0.0625 10.773438 -0.125 10.671875 C -0.3125 10.578125 -0.476562 10.4375 -0.625 10.25 C -0.78125 10.0625 -0.875 9.921875 -0.90625 9.828125 C -1.125 9.035156 -1.070312 8.273438 -0.75 7.546875 C -0.4375 6.828125 -0.046875 6.15625 0.421875 5.53125 C 0.828125 4.976562 1.265625 4.441406 1.734375 3.921875 C 2.210938 3.410156 2.6875 2.910156 3.15625 2.421875 C 3.375 2.203125 3.609375 1.96875 3.859375 1.71875 C 4.453125 0.519531 4.972656 -0.707031 5.421875 -1.96875 C 4.867188 -1.507812 4.304688 -1.085938 3.734375 -0.703125 C 3.316406 -0.429688 2.882812 -0.171875 2.4375 0.078125 C 1.988281 0.328125 1.53125 0.492188 1.0625 0.578125 C 0.59375 0.660156 0.0976562 0.59375 -0.421875 0.375 C -0.554688 0.3125 -0.707031 0.1875 -0.875 0 C -1.050781 -0.1875 -1.128906 -0.375 -1.109375 -0.5625 C -0.992188 -1.90625 -0.515625 -3.097656 0.328125 -4.140625 C 0.429688 -4.253906 0.566406 -4.28125 0.734375 -4.21875 C 0.898438 -4.164062 1.054688 -4.0625 1.203125 -3.90625 C 1.359375 -3.757812 1.46875 -3.597656 1.53125 -3.421875 C 1.601562 -3.242188 1.585938 -3.085938 1.484375 -2.953125 C 0.953125 -2.273438 0.582031 -1.535156 0.375 -0.734375 C 0.613281 -0.785156 0.84375 -0.867188 1.0625 -0.984375 C 1.289062 -1.097656 1.492188 -1.207031 1.671875 -1.3125 C 1.984375 -1.5 2.28125 -1.6875 2.5625 -1.875 C 2.851562 -2.070312 3.144531 -2.28125 3.4375 -2.5 C 3.988281 -2.90625 4.519531 -3.328125 5.03125 -3.765625 C 5.550781 -4.210938 6.054688 -4.679688 6.546875 -5.171875 C 6.691406 -5.328125 6.867188 -5.34375 7.078125 -5.21875 C 7.285156 -5.09375 7.46875 -4.914062 7.625 -4.6875 C 7.78125 -4.457031 7.832031 -4.265625 7.78125 -4.109375 C 7.457031 -3.035156 7.09375 -1.953125 6.6875 -0.859375 C 7.28125 -1.347656 7.9375 -1.78125 8.65625 -2.15625 C 9.382812 -2.539062 10.078125 -2.90625 10.734375 -3.25 Z M 10.734375 -3.25 "/></g></g></g></svg>