<svg xmlns="http://www.w3.org/2000/svg" xmlns:xlink="http://www.w3.org/1999/xlink" width="500" zoomAndPan="magnify" viewBox="0 0 375 374.999991" height="500" preserveAspectRatio="xMidYMid meet" version="1.0"><defs><g/><clipPath id="72f68c16b2"><path d="M 240.433594 175 L 358.933594 175 L 358.933594 187 L 240.433594 187 Z M 240.433594 175 " clip-rule="nonzero"/></clipPath><clipPath id="29a19c4585"><path d="M 270 150.390625 L 321 150.390625 L 321 202 L 270 202 Z M 270 150.390625 " clip-rule="nonzero"/></clipPath></defs><g fill="#000000" fill-opacity="1"><g transform="translate(39.580684, 203.814741)"><g><path d="M 38.546875 0 L 1.515625 0 C 1.515625 0 1.65625 -0.0507812 1.9375 -0.15625 C 2.21875 -0.269531 2.539062 -0.503906 2.90625 -0.859375 C 3.269531 -1.210938 3.59375 -1.769531 3.875 -2.53125 C 4.15625 -3.289062 4.296875 -4.320312 4.296875 -5.625 L 4.296875 -47.109375 C 4.296875 -48.410156 4.15625 -49.4375 3.875 -50.1875 C 3.59375 -50.9375 3.269531 -51.492188 2.90625 -51.859375 C 2.539062 -52.222656 2.21875 -52.460938 1.9375 -52.578125 C 1.65625 -52.691406 1.515625 -52.75 1.515625 -52.75 L 11.703125 -52.75 C 11.703125 -52.75 11.554688 -52.695312 11.265625 -52.59375 C 10.984375 -52.5 10.660156 -52.265625 10.296875 -51.890625 C 9.929688 -51.523438 9.597656 -50.960938 9.296875 -50.203125 C 9.003906 -49.441406 8.859375 -48.398438 8.859375 -47.078125 L 8.859375 -5.625 C 8.859375 -5.132812 8.882812 -4.628906 8.9375 -4.109375 C 8.988281 -3.597656 9.125 -3.164062 9.34375 -2.8125 C 9.5625 -2.457031 9.914062 -2.28125 10.40625 -2.28125 C 10.40625 -2.28125 10.832031 -2.28125 11.6875 -2.28125 C 12.550781 -2.28125 13.929688 -2.28125 15.828125 -2.28125 C 17.734375 -2.28125 20.28125 -2.28125 23.46875 -2.28125 C 26.164062 -2.28125 28.414062 -2.445312 30.21875 -2.78125 C 32.019531 -3.113281 33.476562 -3.523438 34.59375 -4.015625 C 35.707031 -4.503906 36.546875 -5 37.109375 -5.5 C 37.671875 -6 38.050781 -6.414062 38.25 -6.75 C 38.445312 -7.082031 38.546875 -7.25 38.546875 -7.25 Z M 38.546875 0 "/></g></g></g><g fill="#000000" fill-opacity="1"><g transform="translate(79.66688, 203.814741)"><g><path d="M 39.171875 -19.09375 L 39.171875 -47.109375 C 39.171875 -48.410156 39.03125 -49.4375 38.75 -50.1875 C 38.46875 -50.9375 38.132812 -51.492188 37.75 -51.859375 C 37.375 -52.222656 37.046875 -52.460938 36.765625 -52.578125 C 36.484375 -52.691406 36.34375 -52.75 36.34375 -52.75 L 44.140625 -52.75 C 44.140625 -52.75 44 -52.695312 43.71875 -52.59375 C 43.4375 -52.5 43.101562 -52.265625 42.71875 -51.890625 C 42.34375 -51.523438 42.015625 -50.960938 41.734375 -50.203125 C 41.453125 -49.441406 41.3125 -48.398438 41.3125 -47.078125 L 41.3125 -18.828125 C 41.3125 -15.273438 40.957031 -12.300781 40.25 -9.90625 C 39.550781 -7.519531 38.476562 -5.609375 37.03125 -4.171875 C 35.59375 -2.734375 33.765625 -1.703125 31.546875 -1.078125 C 29.328125 -0.453125 26.695312 -0.140625 23.65625 -0.140625 C 20.726562 -0.140625 18.078125 -0.457031 15.703125 -1.09375 C 13.328125 -1.738281 11.285156 -2.773438 9.578125 -4.203125 C 7.878906 -5.640625 6.570312 -7.566406 5.65625 -9.984375 C 4.75 -12.398438 4.296875 -15.375 4.296875 -18.90625 L 4.296875 -47.109375 C 4.296875 -48.410156 4.15625 -49.4375 3.875 -50.1875 C 3.59375 -50.9375 3.269531 -51.492188 2.90625 -51.859375 C 2.539062 -52.222656 2.21875 -52.460938 1.9375 -52.578125 C 1.65625 -52.691406 1.515625 -52.75 1.515625 -52.75 L 11.84375 -52.75 C 11.84375 -52.75 11.703125 -52.695312 11.421875 -52.59375 C 11.140625 -52.5 10.8125 -52.265625 10.4375 -51.890625 C 10.070312 -51.523438 9.742188 -50.960938 9.453125 -50.203125 C 9.160156 -49.441406 9.015625 -48.398438 9.015625 -47.078125 L 9.015625 -18.9375 C 9.015625 -15.65625 9.40625 -12.941406 10.1875 -10.796875 C 10.96875 -8.648438 12.046875 -6.957031 13.421875 -5.71875 C 14.796875 -4.476562 16.359375 -3.597656 18.109375 -3.078125 C 19.867188 -2.566406 21.71875 -2.3125 23.65625 -2.3125 C 26.195312 -2.3125 28.4375 -2.566406 30.375 -3.078125 C 32.3125 -3.597656 33.929688 -4.484375 35.234375 -5.734375 C 36.535156 -6.984375 37.515625 -8.691406 38.171875 -10.859375 C 38.835938 -13.035156 39.171875 -15.78125 39.171875 -19.09375 Z M 39.171875 -19.09375 "/></g></g></g><g fill="#000000" fill-opacity="1"><g transform="translate(125.306302, 203.814741)"><g><path d="M 21.734375 -25.234375 L 8.125 -47.078125 C 7.320312 -48.398438 6.539062 -49.441406 5.78125 -50.203125 C 5.019531 -50.960938 4.335938 -51.523438 3.734375 -51.890625 C 3.128906 -52.265625 2.65625 -52.5 2.3125 -52.59375 C 1.96875 -52.695312 1.796875 -52.75 1.796875 -52.75 L 11.984375 -52.75 C 11.984375 -52.75 11.878906 -52.691406 11.671875 -52.578125 C 11.460938 -52.460938 11.285156 -52.222656 11.140625 -51.859375 C 10.992188 -51.492188 11.007812 -50.9375 11.1875 -50.1875 C 11.375 -49.4375 11.875 -48.410156 12.6875 -47.109375 L 24.125 -28.71875 L 36.78125 -47.109375 C 37.664062 -48.410156 38.226562 -49.4375 38.46875 -50.1875 C 38.71875 -50.9375 38.78125 -51.492188 38.65625 -51.859375 C 38.53125 -52.222656 38.363281 -52.460938 38.15625 -52.578125 C 37.945312 -52.691406 37.84375 -52.75 37.84375 -52.75 L 45.609375 -52.75 C 45.609375 -52.75 45.429688 -52.695312 45.078125 -52.59375 C 44.722656 -52.5 44.238281 -52.265625 43.625 -51.890625 C 43.007812 -51.523438 42.296875 -50.960938 41.484375 -50.203125 C 40.679688 -49.441406 39.828125 -48.398438 38.921875 -47.078125 L 25.125 -27.109375 L 38.46875 -5.625 C 39.28125 -4.320312 40.066406 -3.289062 40.828125 -2.53125 C 41.585938 -1.769531 42.257812 -1.210938 42.84375 -0.859375 C 43.4375 -0.503906 43.910156 -0.269531 44.265625 -0.15625 C 44.617188 -0.0507812 44.796875 0 44.796875 0 L 34.578125 0 C 34.578125 0 34.6875 -0.046875 34.90625 -0.140625 C 35.125 -0.242188 35.3125 -0.476562 35.46875 -0.84375 C 35.632812 -1.207031 35.617188 -1.765625 35.421875 -2.515625 C 35.222656 -3.265625 34.71875 -4.300781 33.90625 -5.625 L 22.734375 -23.609375 L 10.328125 -5.625 C 9.421875 -4.300781 8.851562 -3.265625 8.625 -2.515625 C 8.394531 -1.765625 8.335938 -1.207031 8.453125 -0.84375 C 8.578125 -0.476562 8.742188 -0.242188 8.953125 -0.140625 C 9.160156 -0.046875 9.265625 0 9.265625 0 L 1.515625 0 C 1.515625 0 1.691406 -0.0507812 2.046875 -0.15625 C 2.398438 -0.269531 2.890625 -0.503906 3.515625 -0.859375 C 4.140625 -1.210938 4.847656 -1.769531 5.640625 -2.53125 C 6.441406 -3.289062 7.296875 -4.320312 8.203125 -5.625 Z M 21.734375 -25.234375 "/></g></g></g><g fill="#000000" fill-opacity="1"><g transform="translate(172.453553, 203.814741)"><g><path d="M 25.5625 -26.109375 C 25.5625 -26.109375 25.476562 -26.273438 25.3125 -26.609375 C 25.15625 -26.941406 24.832031 -27.359375 24.34375 -27.859375 C 23.851562 -28.359375 23.132812 -28.851562 22.1875 -29.34375 C 21.25 -29.84375 20.015625 -30.253906 18.484375 -30.578125 C 16.953125 -30.910156 15.03125 -31.078125 12.71875 -31.078125 L 8.859375 -31.046875 L 8.859375 -5.625 C 8.859375 -4.300781 9.003906 -3.265625 9.296875 -2.515625 C 9.597656 -1.765625 9.929688 -1.207031 10.296875 -0.84375 C 10.660156 -0.476562 10.984375 -0.242188 11.265625 -0.140625 C 11.554688 -0.046875 11.703125 0 11.703125 0 L 1.515625 0 C 1.515625 0 1.65625 -0.0507812 1.9375 -0.15625 C 2.21875 -0.269531 2.539062 -0.503906 2.90625 -0.859375 C 3.269531 -1.210938 3.59375 -1.769531 3.875 -2.53125 C 4.15625 -3.289062 4.296875 -4.320312 4.296875 -5.625 L 4.296875 -47.109375 C 4.296875 -48.410156 4.15625 -49.4375 3.875 -50.1875 C 3.59375 -50.9375 3.269531 -51.492188 2.90625 -51.859375 C 2.539062 -52.222656 2.21875 -52.460938 1.9375 -52.578125 C 1.65625 -52.691406 1.515625 -52.75 1.515625 -52.75 L 38.546875 -52.703125 L 38.546875 -45.46875 C 38.546875 -45.46875 38.445312 -45.628906 38.25 -45.953125 C 38.050781 -46.285156 37.671875 -46.703125 37.109375 -47.203125 C 36.546875 -47.710938 35.707031 -48.210938 34.59375 -48.703125 C 33.476562 -49.191406 32.019531 -49.597656 30.21875 -49.921875 C 28.414062 -50.253906 26.164062 -50.421875 23.46875 -50.421875 C 20.28125 -50.421875 17.785156 -50.421875 15.984375 -50.421875 C 14.179688 -50.421875 12.898438 -50.421875 12.140625 -50.421875 C 11.378906 -50.421875 11 -50.421875 11 -50.421875 C 10.289062 -50.421875 9.78125 -50.242188 9.46875 -49.890625 C 9.164062 -49.535156 8.988281 -49.097656 8.9375 -48.578125 C 8.882812 -48.066406 8.859375 -47.566406 8.859375 -47.078125 L 8.859375 -32.21875 L 12.71875 -32.21875 C 15.03125 -32.21875 16.953125 -32.382812 18.484375 -32.71875 C 20.015625 -33.050781 21.25 -33.46875 22.1875 -33.96875 C 23.132812 -34.46875 23.851562 -34.960938 24.34375 -35.453125 C 24.832031 -35.941406 25.15625 -36.351562 25.3125 -36.6875 C 25.476562 -37.019531 25.5625 -37.1875 25.5625 -37.1875 Z M 25.5625 -26.109375 "/></g></g></g><g fill="#000000" fill-opacity="1"><g transform="translate(212.539749, 203.814741)"><g><path d="M 1.515625 -52.75 L 11.703125 -52.75 C 11.703125 -52.75 11.554688 -52.695312 11.265625 -52.59375 C 10.984375 -52.5 10.660156 -52.265625 10.296875 -51.890625 C 9.929688 -51.523438 9.597656 -50.960938 9.296875 -50.203125 C 9.003906 -49.441406 8.859375 -48.398438 8.859375 -47.078125 L 8.859375 -5.625 C 8.859375 -4.300781 9.003906 -3.265625 9.296875 -2.515625 C 9.597656 -1.765625 9.929688 -1.207031 10.296875 -0.84375 C 10.660156 -0.476562 10.984375 -0.242188 11.265625 -0.140625 C 11.554688 -0.046875 11.703125 0 11.703125 0 L 1.515625 0 C 1.515625 0 1.65625 -0.0507812 1.9375 -0.15625 C 2.21875 -0.269531 2.539062 -0.503906 2.90625 -0.859375 C 3.269531 -1.210938 3.59375 -1.769531 3.875 -2.53125 C 4.15625 -3.289062 4.296875 -4.320312 4.296875 -5.625 L 4.296875 -47.109375 C 4.296875 -48.410156 4.15625 -49.4375 3.875 -50.1875 C 3.59375 -50.9375 3.269531 -51.492188 2.90625 -51.859375 C 2.539062 -52.222656 2.21875 -52.460938 1.9375 -52.578125 C 1.65625 -52.691406 1.515625 -52.75 1.515625 -52.75 Z M 1.515625 -52.75 "/></g></g></g><g fill="#000000" fill-opacity="1"><g transform="translate(225.705674, 203.814741)"><g><path d="M 12.765625 -52.75 C 12.765625 -52.75 12.644531 -52.695312 12.40625 -52.59375 C 12.175781 -52.5 11.972656 -52.265625 11.796875 -51.890625 C 11.628906 -51.523438 11.613281 -50.960938 11.75 -50.203125 C 11.882812 -49.441406 12.320312 -48.398438 13.0625 -47.078125 L 34.578125 -8.171875 L 34.578125 -47.109375 C 34.578125 -48.410156 34.4375 -49.4375 34.15625 -50.1875 C 33.875 -50.9375 33.539062 -51.492188 33.15625 -51.859375 C 32.78125 -52.222656 32.453125 -52.460938 32.171875 -52.578125 C 31.890625 -52.691406 31.75 -52.75 31.75 -52.75 L 39.5 -52.75 C 39.5 -52.75 39.359375 -52.695312 39.078125 -52.59375 C 38.796875 -52.5 38.46875 -52.265625 38.09375 -51.890625 C 37.726562 -51.523438 37.398438 -50.960938 37.109375 -50.203125 C 36.816406 -49.441406 36.671875 -48.398438 36.671875 -47.078125 L 36.671875 0 L 34.53125 0 L 8.5 -47.109375 C 7.90625 -48.140625 7.328125 -49.015625 6.765625 -49.734375 C 6.671875 -49.390625 6.59375 -48.992188 6.53125 -48.546875 C 6.46875 -48.109375 6.4375 -47.617188 6.4375 -47.078125 L 6.4375 -5.625 C 6.4375 -4.300781 6.582031 -3.265625 6.875 -2.515625 C 7.164062 -1.765625 7.492188 -1.207031 7.859375 -0.84375 C 8.234375 -0.476562 8.5625 -0.242188 8.84375 -0.140625 C 9.125 -0.046875 9.265625 0 9.265625 0 L 1.515625 0 C 1.515625 0 1.65625 -0.0507812 1.9375 -0.15625 C 2.21875 -0.269531 2.539062 -0.503906 2.90625 -0.859375 C 3.269531 -1.210938 3.59375 -1.769531 3.875 -2.53125 C 4.15625 -3.289062 4.296875 -4.320312 4.296875 -5.625 L 4.296875 -47.109375 C 4.296875 -48.410156 4.15625 -49.4375 3.875 -50.1875 C 3.59375 -50.9375 3.269531 -51.492188 2.90625 -51.859375 C 2.539062 -52.222656 2.21875 -52.460938 1.9375 -52.578125 C 1.65625 -52.691406 1.515625 -52.75 1.515625 -52.75 Z M 12.765625 -52.75 "/></g></g></g><g fill="#000000" fill-opacity="1"><g transform="translate(266.748042, 203.814741)"><g><path d="M 27.515625 -52.75 C 30.378906 -52.75 33.109375 -52.304688 35.703125 -51.421875 C 38.304688 -50.535156 40.691406 -49.289062 42.859375 -47.6875 C 45.035156 -46.082031 46.921875 -44.179688 48.515625 -41.984375 C 50.109375 -39.785156 51.335938 -37.375 52.203125 -34.75 C 53.078125 -32.132812 53.515625 -29.367188 53.515625 -26.453125 C 53.515625 -23.554688 53.078125 -20.796875 52.203125 -18.171875 C 51.335938 -15.546875 50.109375 -13.132812 48.515625 -10.9375 C 46.921875 -8.75 45.035156 -6.84375 42.859375 -5.21875 C 40.691406 -3.601562 38.304688 -2.351562 35.703125 -1.46875 C 33.109375 -0.582031 30.378906 -0.140625 27.515625 -0.140625 C 24.640625 -0.140625 21.898438 -0.582031 19.296875 -1.46875 C 16.703125 -2.351562 14.320312 -3.601562 12.15625 -5.21875 C 9.988281 -6.84375 8.109375 -8.75 6.515625 -10.9375 C 4.921875 -13.132812 3.6875 -15.546875 2.8125 -18.171875 C 1.945312 -20.796875 1.515625 -23.554688 1.515625 -26.453125 C 1.515625 -29.367188 1.945312 -32.132812 2.8125 -34.75 C 3.6875 -37.375 4.921875 -39.785156 6.515625 -41.984375 C 8.109375 -44.179688 9.988281 -46.082031 12.15625 -47.6875 C 14.320312 -49.289062 16.703125 -50.535156 19.296875 -51.421875 C 21.898438 -52.304688 24.640625 -52.75 27.515625 -52.75 Z M 27.515625 -2.3125 C 29.867188 -2.3125 32.109375 -2.71875 34.234375 -3.53125 C 36.367188 -4.34375 38.328125 -5.484375 40.109375 -6.953125 C 41.890625 -8.421875 43.425781 -10.160156 44.71875 -12.171875 C 46.019531 -14.179688 47.03125 -16.390625 47.75 -18.796875 C 48.476562 -21.203125 48.84375 -23.726562 48.84375 -26.375 C 48.84375 -29.019531 48.476562 -31.550781 47.75 -33.96875 C 47.03125 -36.382812 46.019531 -38.585938 44.71875 -40.578125 C 43.425781 -42.578125 41.890625 -44.316406 40.109375 -45.796875 C 38.328125 -47.285156 36.367188 -48.4375 34.234375 -49.25 C 32.109375 -50.0625 29.867188 -50.46875 27.515625 -50.46875 C 25.160156 -50.46875 22.914062 -50.0625 20.78125 -49.25 C 18.644531 -48.4375 16.6875 -47.285156 14.90625 -45.796875 C 13.132812 -44.316406 11.597656 -42.578125 10.296875 -40.578125 C 8.992188 -38.585938 7.976562 -36.382812 7.25 -33.96875 C 6.53125 -31.550781 6.171875 -29.019531 6.171875 -26.375 C 6.171875 -23.726562 6.53125 -21.203125 7.25 -18.796875 C 7.976562 -16.390625 8.992188 -14.179688 10.296875 -12.171875 C 11.597656 -10.160156 13.132812 -8.421875 14.90625 -6.953125 C 16.6875 -5.484375 18.644531 -4.34375 20.78125 -3.53125 C 22.914062 -2.71875 25.160156 -2.3125 27.515625 -2.3125 Z M 27.515625 -2.3125 "/></g></g></g><g clip-path="url(#72f68c16b2)"><path fill="#000000" d="M 240.910156 185.414062 C 249.8125 188.710938 259.210938 185.5 267.851562 182.972656 C 269.757812 182.414062 271.675781 181.910156 273.5625 181.285156 C 275.414062 180.671875 277.246094 180.007812 279.085938 179.367188 C 282.625 178.136719 286.285156 176.804688 290.035156 176.421875 C 291.875 176.234375 293.898438 176.070312 295.703125 176.570312 C 297.078125 176.953125 298.007812 177.855469 298.621094 179.121094 L 299.246094 178.640625 C 298.078125 177.546875 295.773438 177.976562 294.464844 178.535156 C 293.246094 179.054688 292.210938 180.121094 292.730469 181.523438 C 293.316406 183.109375 295.222656 183.84375 296.746094 184.125 C 299.414062 184.625 302.277344 184.574219 304.980469 184.429688 C 310.171875 184.152344 315.261719 183.054688 320.390625 182.285156 C 323.273438 181.851562 326.179688 181.511719 329.09375 181.429688 C 332.105469 181.34375 335.117188 181.507812 338.105469 181.84375 C 344.925781 182.617188 351.605469 184.292969 358.234375 186.023438 C 358.730469 186.15625 358.941406 185.386719 358.445312 185.257812 C 347.621094 182.425781 336.53125 179.792969 325.265625 180.878906 C 320.316406 181.355469 315.449219 182.378906 310.527344 183.074219 C 308.085938 183.417969 305.625 183.65625 303.15625 183.695312 C 301.8125 183.71875 300.46875 183.683594 299.132812 183.589844 C 297.957031 183.507812 296.777344 183.414062 295.664062 183.011719 C 294.652344 182.648438 292.625 181.378906 293.628906 180.050781 C 294.191406 179.3125 295.316406 179.007812 296.183594 178.875 C 296.90625 178.765625 298.09375 178.652344 298.683594 179.203125 C 299.023438 179.519531 299.503906 179.125 299.308594 178.71875 C 298.785156 177.640625 298.011719 176.703125 296.914062 176.175781 C 295.625 175.554688 294.144531 175.457031 292.738281 175.472656 C 288.914062 175.507812 285.269531 176.46875 281.65625 177.652344 C 277.976562 178.859375 274.371094 180.3125 270.636719 181.355469 C 265.992188 182.652344 261.402344 184.214844 256.671875 185.191406 C 251.542969 186.246094 246.109375 186.492188 241.125 184.644531 C 240.640625 184.46875 240.433594 185.238281 240.910156 185.414062 Z M 240.910156 185.414062 " fill-opacity="1" fill-rule="nonzero"/></g><g clip-path="url(#29a19c4585)"><path fill="#000000" d="M 319.914062 176.230469 C 319.90625 181.328125 318.316406 186.328125 315.359375 190.480469 C 312.507812 194.484375 308.433594 197.597656 303.816406 199.277344 C 298.988281 201.039062 293.640625 201.234375 288.695312 199.828125 C 283.9375 198.472656 279.660156 195.652344 276.507812 191.839844 C 273.300781 187.96875 271.34375 183.105469 270.972656 178.09375 C 270.597656 173 271.808594 167.867188 274.460938 163.503906 C 277.019531 159.292969 280.839844 155.910156 285.320312 153.871094 C 289.976562 151.753906 295.296875 151.171875 300.304688 152.191406 C 305.171875 153.1875 309.667969 155.675781 313.105469 159.265625 C 316.574219 162.886719 318.867188 167.542969 319.632812 172.496094 C 319.824219 173.734375 319.910156 174.984375 319.914062 176.230469 C 319.914062 176.746094 320.710938 176.746094 320.710938 176.230469 C 320.703125 171.003906 319.078125 165.839844 316.046875 161.578125 C 313.082031 157.417969 308.894531 154.203125 304.101562 152.441406 C 299.125 150.613281 293.578125 150.417969 288.484375 151.867188 C 283.578125 153.261719 279.136719 156.175781 275.894531 160.117188 C 272.589844 164.132812 270.582031 169.101562 270.183594 174.292969 C 269.78125 179.539062 271.039062 184.863281 273.769531 189.363281 C 276.410156 193.703125 280.359375 197.222656 284.988281 199.3125 C 289.832031 201.5 295.308594 202.101562 300.515625 201.039062 C 305.535156 200.015625 310.191406 197.417969 313.722656 193.707031 C 317.269531 189.980469 319.644531 185.1875 320.414062 180.097656 C 320.609375 178.820312 320.707031 177.527344 320.710938 176.230469 C 320.710938 175.71875 319.914062 175.71875 319.914062 176.230469 Z M 319.914062 176.230469 " fill-opacity="1" fill-rule="nonzero"/></g><g fill="#000000" fill-opacity="1"><g transform="translate(125.924972, 229.35796)"><g><path d="M 6.1875 -0.53125 C 5.957031 -0.375 5.664062 -0.234375 5.3125 -0.109375 C 4.96875 0.015625 4.59375 0.078125 4.1875 0.078125 C 3.46875 0.078125 2.832031 -0.078125 2.28125 -0.390625 C 1.726562 -0.710938 1.304688 -1.140625 1.015625 -1.671875 C 0.722656 -2.210938 0.578125 -2.8125 0.578125 -3.46875 C 0.578125 -4.15625 0.722656 -4.773438 1.015625 -5.328125 C 1.316406 -5.890625 1.734375 -6.328125 2.265625 -6.640625 C 2.796875 -6.953125 3.394531 -7.109375 4.0625 -7.109375 C 4.457031 -7.109375 4.828125 -7.054688 5.171875 -6.953125 C 5.515625 -6.847656 5.820312 -6.710938 6.09375 -6.546875 L 5.71875 -5.671875 C 5.175781 -6.023438 4.632812 -6.203125 4.09375 -6.203125 C 3.632812 -6.203125 3.210938 -6.082031 2.828125 -5.84375 C 2.441406 -5.601562 2.132812 -5.273438 1.90625 -4.859375 C 1.675781 -4.453125 1.5625 -4.003906 1.5625 -3.515625 C 1.5625 -3.003906 1.664062 -2.546875 1.875 -2.140625 C 2.082031 -1.734375 2.382812 -1.414062 2.78125 -1.1875 C 3.175781 -0.957031 3.628906 -0.84375 4.140625 -0.84375 C 4.765625 -0.84375 5.3125 -1.019531 5.78125 -1.375 Z M 6.1875 -0.53125 "/></g></g></g><g fill="#000000" fill-opacity="1"><g transform="translate(136.848288, 229.35796)"><g><path d="M 4.703125 -1.84375 L 2 -1.84375 L 1.25 0 L 0.3125 0 L 3.390625 -7.328125 L 3.453125 -7.328125 L 6.515625 0 L 5.4375 0 Z M 4.375 -2.671875 L 3.375 -5.234375 L 2.34375 -2.671875 Z M 4.375 -2.671875 "/></g></g></g><g fill="#000000" fill-opacity="1"><g transform="translate(147.839692, 229.35796)"><g><path d="M 5.171875 -7.03125 L 5.171875 -6.125 L 3.28125 -6.125 L 3.28125 0 L 2.34375 0 L 2.34375 -6.125 L 0.5 -6.125 L 0.5 -7.03125 Z M 5.171875 -7.03125 "/></g></g></g><g fill="#000000" fill-opacity="1"><g transform="translate(157.673594, 229.35796)"><g><path d="M 5.59375 -7.03125 L 5.59375 -6.125 L 1.953125 -6.125 L 1.953125 -3.984375 L 5.203125 -3.984375 L 5.203125 -3.078125 L 1.953125 -3.078125 L 1.953125 -0.921875 L 5.71875 -0.921875 L 5.71875 0 L 1.015625 0 L 1.015625 -7.03125 Z M 5.59375 -7.03125 "/></g></g></g><g fill="#000000" fill-opacity="1"><g transform="translate(168.198105, 229.35796)"><g><path d="M 4.890625 0 L 3.234375 -2.59375 C 3.179688 -2.59375 3.101562 -2.59375 3 -2.59375 L 1.953125 -2.59375 L 1.953125 0 L 1.015625 0 L 1.015625 -7.03125 L 2.890625 -7.03125 C 3.367188 -7.03125 3.796875 -6.945312 4.171875 -6.78125 C 4.546875 -6.613281 4.84375 -6.363281 5.0625 -6.03125 C 5.28125 -5.707031 5.390625 -5.316406 5.390625 -4.859375 C 5.390625 -4.421875 5.289062 -4.019531 5.09375 -3.65625 C 4.90625 -3.289062 4.613281 -3.015625 4.21875 -2.828125 L 5.984375 0 Z M 2.984375 -3.5 C 3.484375 -3.5 3.84375 -3.628906 4.0625 -3.890625 C 4.289062 -4.160156 4.40625 -4.46875 4.40625 -4.8125 C 4.40625 -5.019531 4.359375 -5.222656 4.265625 -5.421875 C 4.171875 -5.628906 4.019531 -5.796875 3.8125 -5.921875 C 3.613281 -6.054688 3.359375 -6.125 3.046875 -6.125 L 1.953125 -6.125 L 1.953125 -3.5 Z M 2.984375 -3.5 "/></g></g></g><g fill="#000000" fill-opacity="1"><g transform="translate(178.790703, 229.35796)"><g><path d="M 1.953125 -7.03125 L 1.953125 0 L 1.015625 0 L 1.015625 -7.03125 Z M 1.953125 -7.03125 "/></g></g></g><g fill="#000000" fill-opacity="1"><g transform="translate(185.930237, 229.35796)"><g><path d="M 7.140625 -7.03125 L 7.140625 0.234375 L 7.109375 0.234375 L 1.953125 -5.015625 L 1.96875 0 L 1.015625 0 L 1.015625 -7.25 L 1.0625 -7.25 L 6.21875 -1.953125 L 6.203125 -7.03125 Z M 7.140625 -7.03125 "/></g></g></g><g fill="#000000" fill-opacity="1"><g transform="translate(198.254233, 229.35796)"><g><path d="M 6.53125 -0.609375 C 6.3125 -0.429688 5.972656 -0.269531 5.515625 -0.125 C 5.066406 0.0078125 4.644531 0.078125 4.25 0.078125 C 3.519531 0.078125 2.875 -0.0703125 2.3125 -0.375 C 1.757812 -0.675781 1.332031 -1.085938 1.03125 -1.609375 C 0.726562 -2.140625 0.578125 -2.734375 0.578125 -3.390625 C 0.578125 -4.148438 0.738281 -4.8125 1.0625 -5.375 C 1.382812 -5.9375 1.820312 -6.363281 2.375 -6.65625 C 2.925781 -6.957031 3.53125 -7.109375 4.1875 -7.109375 C 4.582031 -7.109375 4.953125 -7.0625 5.296875 -6.96875 C 5.648438 -6.875 5.96875 -6.75 6.25 -6.59375 L 5.9375 -5.734375 C 5.726562 -5.847656 5.46875 -5.945312 5.15625 -6.03125 C 4.84375 -6.125 4.554688 -6.171875 4.296875 -6.171875 C 3.753906 -6.171875 3.273438 -6.0625 2.859375 -5.84375 C 2.441406 -5.625 2.117188 -5.304688 1.890625 -4.890625 C 1.660156 -4.484375 1.546875 -4.007812 1.546875 -3.46875 C 1.546875 -2.957031 1.660156 -2.503906 1.890625 -2.109375 C 2.117188 -1.710938 2.4375 -1.40625 2.84375 -1.1875 C 3.257812 -0.96875 3.734375 -0.859375 4.265625 -0.859375 C 4.515625 -0.859375 4.753906 -0.882812 4.984375 -0.9375 C 5.222656 -0.988281 5.421875 -1.0625 5.578125 -1.15625 L 5.578125 -2.546875 L 4.171875 -2.546875 L 4.171875 -3.453125 L 6.53125 -3.453125 Z M 6.53125 -0.609375 "/></g></g></g></svg>